<?xml version="1.0" encoding="utf-8" standalone="no"?>
<!DOCTYPE svg PUBLIC "-//W3C//DTD SVG 1.1//EN"
  "http://www.w3.org/Graphics/SVG/1.1/DTD/svg11.dtd">
<svg xmlns:xlink="http://www.w3.org/1999/xlink" width="566.64pt" height="367.92pt" viewBox="0 0 566.64 367.92" xmlns="http://www.w3.org/2000/svg" version="1.1">
 <metadata>
  <rdf:RDF xmlns:dc="http://purl.org/dc/elements/1.1/" xmlns:cc="http://creativecommons.org/ns#" xmlns:rdf="http://www.w3.org/1999/02/22-rdf-syntax-ns#">
   <cc:Work>
    <dc:type rdf:resource="http://purl.org/dc/dcmitype/StillImage"/>
    <dc:date>2022-04-05T18:03:47.342515</dc:date>
    <dc:format>image/svg+xml</dc:format>
    <dc:creator>
     <cc:Agent>
      <dc:title>Matplotlib v3.5.1, https://matplotlib.org/</dc:title>
     </cc:Agent>
    </dc:creator>
   </cc:Work>
  </rdf:RDF>
 </metadata>
 <defs>
  <style type="text/css">*{stroke-linejoin: round; stroke-linecap: butt}</style>
 </defs>
 <g id="figure_1">
  <g id="patch_1">
   <path d="M 0 367.92 
L 566.64 367.92 
L 566.64 0 
L 0 0 
L 0 367.92 
z
" style="fill: none"/>
  </g>
  <g id="axes_1">
   <g id="patch_2">
    <path d="M 93.89899 304.657885 
L 561.914843 304.657885 
L 561.914843 3.00024 
L 93.89899 3.00024 
z
" style="fill: #ffffff"/>
   </g>
   <g id="matplotlib.axis_1">
    <g id="xtick_1">
     <g id="line2d_1">
      <defs>
       <path id="m2ec1c562c6" d="M 0 0 
L 0 3.5 
" style="stroke: #000000; stroke-width: 0.8"/>
      </defs>
      <g>
       <use xlink:href="#m2ec1c562c6" x="115.172438" y="304.657885" style="stroke: #000000; stroke-width: 0.8"/>
      </g>
     </g>
     <g id="text_1">
      <!-- $\mathdefault{10^{0}}$ -->
      <g transform="translate(92.292438 329.413823)scale(0.26 -0.26)">
       <defs>
        <path id="DejaVuSans-31" d="M 794 531 
L 1825 531 
L 1825 4091 
L 703 3866 
L 703 4441 
L 1819 4666 
L 2450 4666 
L 2450 531 
L 3481 531 
L 3481 0 
L 794 0 
L 794 531 
z
" transform="scale(0.015625)"/>
        <path id="DejaVuSans-30" d="M 2034 4250 
Q 1547 4250 1301 3770 
Q 1056 3291 1056 2328 
Q 1056 1369 1301 889 
Q 1547 409 2034 409 
Q 2525 409 2770 889 
Q 3016 1369 3016 2328 
Q 3016 3291 2770 3770 
Q 2525 4250 2034 4250 
z
M 2034 4750 
Q 2819 4750 3233 4129 
Q 3647 3509 3647 2328 
Q 3647 1150 3233 529 
Q 2819 -91 2034 -91 
Q 1250 -91 836 529 
Q 422 1150 422 2328 
Q 422 3509 836 4129 
Q 1250 4750 2034 4750 
z
" transform="scale(0.015625)"/>
       </defs>
       <use xlink:href="#DejaVuSans-31" transform="translate(0 0.765625)"/>
       <use xlink:href="#DejaVuSans-30" transform="translate(63.623047 0.765625)"/>
       <use xlink:href="#DejaVuSans-30" transform="translate(128.203125 39.046875)scale(0.7)"/>
      </g>
     </g>
    </g>
    <g id="xtick_2">
     <g id="line2d_2">
      <g>
       <use xlink:href="#m2ec1c562c6" x="257.015968" y="304.657885" style="stroke: #000000; stroke-width: 0.8"/>
      </g>
     </g>
     <g id="text_2">
      <!-- $\mathdefault{10^{1}}$ -->
      <g transform="translate(234.135968 329.413823)scale(0.26 -0.26)">
       <use xlink:href="#DejaVuSans-31" transform="translate(0 0.684375)"/>
       <use xlink:href="#DejaVuSans-30" transform="translate(63.623047 0.684375)"/>
       <use xlink:href="#DejaVuSans-31" transform="translate(128.203125 38.965625)scale(0.7)"/>
      </g>
     </g>
    </g>
    <g id="xtick_3">
     <g id="line2d_3">
      <g>
       <use xlink:href="#m2ec1c562c6" x="398.859498" y="304.657885" style="stroke: #000000; stroke-width: 0.8"/>
      </g>
     </g>
     <g id="text_3">
      <!-- $\mathdefault{10^{2}}$ -->
      <g transform="translate(375.979498 329.413823)scale(0.26 -0.26)">
       <defs>
        <path id="DejaVuSans-32" d="M 1228 531 
L 3431 531 
L 3431 0 
L 469 0 
L 469 531 
Q 828 903 1448 1529 
Q 2069 2156 2228 2338 
Q 2531 2678 2651 2914 
Q 2772 3150 2772 3378 
Q 2772 3750 2511 3984 
Q 2250 4219 1831 4219 
Q 1534 4219 1204 4116 
Q 875 4013 500 3803 
L 500 4441 
Q 881 4594 1212 4672 
Q 1544 4750 1819 4750 
Q 2544 4750 2975 4387 
Q 3406 4025 3406 3419 
Q 3406 3131 3298 2873 
Q 3191 2616 2906 2266 
Q 2828 2175 2409 1742 
Q 1991 1309 1228 531 
z
" transform="scale(0.015625)"/>
       </defs>
       <use xlink:href="#DejaVuSans-31" transform="translate(0 0.765625)"/>
       <use xlink:href="#DejaVuSans-30" transform="translate(63.623047 0.765625)"/>
       <use xlink:href="#DejaVuSans-32" transform="translate(128.203125 39.046875)scale(0.7)"/>
      </g>
     </g>
    </g>
    <g id="xtick_4">
     <g id="line2d_4">
      <g>
       <use xlink:href="#m2ec1c562c6" x="540.703028" y="304.657885" style="stroke: #000000; stroke-width: 0.8"/>
      </g>
     </g>
     <g id="text_4">
      <!-- $\mathdefault{10^{3}}$ -->
      <g transform="translate(517.823028 329.413823)scale(0.26 -0.26)">
       <defs>
        <path id="DejaVuSans-33" d="M 2597 2516 
Q 3050 2419 3304 2112 
Q 3559 1806 3559 1356 
Q 3559 666 3084 287 
Q 2609 -91 1734 -91 
Q 1441 -91 1130 -33 
Q 819 25 488 141 
L 488 750 
Q 750 597 1062 519 
Q 1375 441 1716 441 
Q 2309 441 2620 675 
Q 2931 909 2931 1356 
Q 2931 1769 2642 2001 
Q 2353 2234 1838 2234 
L 1294 2234 
L 1294 2753 
L 1863 2753 
Q 2328 2753 2575 2939 
Q 2822 3125 2822 3475 
Q 2822 3834 2567 4026 
Q 2313 4219 1838 4219 
Q 1578 4219 1281 4162 
Q 984 4106 628 3988 
L 628 4550 
Q 988 4650 1302 4700 
Q 1616 4750 1894 4750 
Q 2613 4750 3031 4423 
Q 3450 4097 3450 3541 
Q 3450 3153 3228 2886 
Q 3006 2619 2597 2516 
z
" transform="scale(0.015625)"/>
       </defs>
       <use xlink:href="#DejaVuSans-31" transform="translate(0 0.765625)"/>
       <use xlink:href="#DejaVuSans-30" transform="translate(63.623047 0.765625)"/>
       <use xlink:href="#DejaVuSans-33" transform="translate(128.203125 39.046875)scale(0.7)"/>
      </g>
     </g>
    </g>
    <g id="xtick_5">
     <g id="line2d_5">
      <defs>
       <path id="m3ba69e8ed3" d="M 0 0 
L 0 2 
" style="stroke: #000000; stroke-width: 0.4"/>
      </defs>
      <g>
       <use xlink:href="#m3ba69e8ed3" x="101.42638" y="304.657885" style="stroke: #000000; stroke-width: 0.4"/>
      </g>
     </g>
    </g>
    <g id="xtick_6">
     <g id="line2d_6">
      <g>
       <use xlink:href="#m3ba69e8ed3" x="108.682034" y="304.657885" style="stroke: #000000; stroke-width: 0.4"/>
      </g>
     </g>
    </g>
    <g id="xtick_7">
     <g id="line2d_7">
      <g>
       <use xlink:href="#m3ba69e8ed3" x="157.871595" y="304.657885" style="stroke: #000000; stroke-width: 0.4"/>
      </g>
     </g>
    </g>
    <g id="xtick_8">
     <g id="line2d_8">
      <g>
       <use xlink:href="#m3ba69e8ed3" x="182.849001" y="304.657885" style="stroke: #000000; stroke-width: 0.4"/>
      </g>
     </g>
    </g>
    <g id="xtick_9">
     <g id="line2d_9">
      <g>
       <use xlink:href="#m3ba69e8ed3" x="200.570752" y="304.657885" style="stroke: #000000; stroke-width: 0.4"/>
      </g>
     </g>
    </g>
    <g id="xtick_10">
     <g id="line2d_10">
      <g>
       <use xlink:href="#m3ba69e8ed3" x="214.316811" y="304.657885" style="stroke: #000000; stroke-width: 0.4"/>
      </g>
     </g>
    </g>
    <g id="xtick_11">
     <g id="line2d_11">
      <g>
       <use xlink:href="#m3ba69e8ed3" x="225.548158" y="304.657885" style="stroke: #000000; stroke-width: 0.4"/>
      </g>
     </g>
    </g>
    <g id="xtick_12">
     <g id="line2d_12">
      <g>
       <use xlink:href="#m3ba69e8ed3" x="235.044127" y="304.657885" style="stroke: #000000; stroke-width: 0.4"/>
      </g>
     </g>
    </g>
    <g id="xtick_13">
     <g id="line2d_13">
      <g>
       <use xlink:href="#m3ba69e8ed3" x="243.26991" y="304.657885" style="stroke: #000000; stroke-width: 0.4"/>
      </g>
     </g>
    </g>
    <g id="xtick_14">
     <g id="line2d_14">
      <g>
       <use xlink:href="#m3ba69e8ed3" x="250.525564" y="304.657885" style="stroke: #000000; stroke-width: 0.4"/>
      </g>
     </g>
    </g>
    <g id="xtick_15">
     <g id="line2d_15">
      <g>
       <use xlink:href="#m3ba69e8ed3" x="299.715125" y="304.657885" style="stroke: #000000; stroke-width: 0.4"/>
      </g>
     </g>
    </g>
    <g id="xtick_16">
     <g id="line2d_16">
      <g>
       <use xlink:href="#m3ba69e8ed3" x="324.692531" y="304.657885" style="stroke: #000000; stroke-width: 0.4"/>
      </g>
     </g>
    </g>
    <g id="xtick_17">
     <g id="line2d_17">
      <g>
       <use xlink:href="#m3ba69e8ed3" x="342.414282" y="304.657885" style="stroke: #000000; stroke-width: 0.4"/>
      </g>
     </g>
    </g>
    <g id="xtick_18">
     <g id="line2d_18">
      <g>
       <use xlink:href="#m3ba69e8ed3" x="356.160341" y="304.657885" style="stroke: #000000; stroke-width: 0.4"/>
      </g>
     </g>
    </g>
    <g id="xtick_19">
     <g id="line2d_19">
      <g>
       <use xlink:href="#m3ba69e8ed3" x="367.391688" y="304.657885" style="stroke: #000000; stroke-width: 0.4"/>
      </g>
     </g>
    </g>
    <g id="xtick_20">
     <g id="line2d_20">
      <g>
       <use xlink:href="#m3ba69e8ed3" x="376.887657" y="304.657885" style="stroke: #000000; stroke-width: 0.4"/>
      </g>
     </g>
    </g>
    <g id="xtick_21">
     <g id="line2d_21">
      <g>
       <use xlink:href="#m3ba69e8ed3" x="385.11344" y="304.657885" style="stroke: #000000; stroke-width: 0.4"/>
      </g>
     </g>
    </g>
    <g id="xtick_22">
     <g id="line2d_22">
      <g>
       <use xlink:href="#m3ba69e8ed3" x="392.369094" y="304.657885" style="stroke: #000000; stroke-width: 0.4"/>
      </g>
     </g>
    </g>
    <g id="xtick_23">
     <g id="line2d_23">
      <g>
       <use xlink:href="#m3ba69e8ed3" x="441.558655" y="304.657885" style="stroke: #000000; stroke-width: 0.4"/>
      </g>
     </g>
    </g>
    <g id="xtick_24">
     <g id="line2d_24">
      <g>
       <use xlink:href="#m3ba69e8ed3" x="466.536061" y="304.657885" style="stroke: #000000; stroke-width: 0.4"/>
      </g>
     </g>
    </g>
    <g id="xtick_25">
     <g id="line2d_25">
      <g>
       <use xlink:href="#m3ba69e8ed3" x="484.257812" y="304.657885" style="stroke: #000000; stroke-width: 0.4"/>
      </g>
     </g>
    </g>
    <g id="xtick_26">
     <g id="line2d_26">
      <g>
       <use xlink:href="#m3ba69e8ed3" x="498.003871" y="304.657885" style="stroke: #000000; stroke-width: 0.4"/>
      </g>
     </g>
    </g>
    <g id="xtick_27">
     <g id="line2d_27">
      <g>
       <use xlink:href="#m3ba69e8ed3" x="509.235218" y="304.657885" style="stroke: #000000; stroke-width: 0.4"/>
      </g>
     </g>
    </g>
    <g id="xtick_28">
     <g id="line2d_28">
      <g>
       <use xlink:href="#m3ba69e8ed3" x="518.731187" y="304.657885" style="stroke: #000000; stroke-width: 0.4"/>
      </g>
     </g>
    </g>
    <g id="xtick_29">
     <g id="line2d_29">
      <g>
       <use xlink:href="#m3ba69e8ed3" x="526.95697" y="304.657885" style="stroke: #000000; stroke-width: 0.4"/>
      </g>
     </g>
    </g>
    <g id="xtick_30">
     <g id="line2d_30">
      <g>
       <use xlink:href="#m3ba69e8ed3" x="534.212624" y="304.657885" style="stroke: #000000; stroke-width: 0.4"/>
      </g>
     </g>
    </g>
    <g id="text_5">
     <!-- $n$ -->
     <g transform="translate(318.946917 359.096635)scale(0.28 -0.28)">
      <defs>
       <path id="DejaVuSans-Oblique-6e" d="M 3566 2113 
L 3156 0 
L 2578 0 
L 2988 2091 
Q 3016 2238 3031 2350 
Q 3047 2463 3047 2528 
Q 3047 2791 2881 2937 
Q 2716 3084 2419 3084 
Q 1956 3084 1622 2776 
Q 1288 2469 1184 1941 
L 800 0 
L 225 0 
L 903 3500 
L 1478 3500 
L 1363 2950 
Q 1603 3253 1940 3418 
Q 2278 3584 2650 3584 
Q 3113 3584 3367 3334 
Q 3622 3084 3622 2631 
Q 3622 2519 3608 2391 
Q 3594 2263 3566 2113 
z
" transform="scale(0.015625)"/>
      </defs>
      <use xlink:href="#DejaVuSans-Oblique-6e"/>
     </g>
    </g>
   </g>
   <g id="matplotlib.axis_2">
    <g id="ytick_1">
     <g id="line2d_31">
      <defs>
       <path id="m2e50375d9f" d="M 0 0 
L -3.5 0 
" style="stroke: #000000; stroke-width: 0.8"/>
      </defs>
      <g>
       <use xlink:href="#m2e50375d9f" x="93.89899" y="263.740714" style="stroke: #000000; stroke-width: 0.8"/>
      </g>
     </g>
     <g id="text_6">
      <!-- $\mathdefault{10^{-10}}$ -->
      <g transform="translate(33.09899 271.339151)scale(0.2 -0.2)">
       <defs>
        <path id="DejaVuSans-2212" d="M 678 2272 
L 4684 2272 
L 4684 1741 
L 678 1741 
L 678 2272 
z
" transform="scale(0.015625)"/>
       </defs>
       <use xlink:href="#DejaVuSans-31" transform="translate(0 0.765625)"/>
       <use xlink:href="#DejaVuSans-30" transform="translate(63.623047 0.765625)"/>
       <use xlink:href="#DejaVuSans-2212" transform="translate(128.203125 39.046875)scale(0.7)"/>
       <use xlink:href="#DejaVuSans-31" transform="translate(186.855469 39.046875)scale(0.7)"/>
       <use xlink:href="#DejaVuSans-30" transform="translate(231.391602 39.046875)scale(0.7)"/>
      </g>
     </g>
    </g>
    <g id="ytick_2">
     <g id="line2d_32">
      <g>
       <use xlink:href="#m2e50375d9f" x="93.89899" y="208.840885" style="stroke: #000000; stroke-width: 0.8"/>
      </g>
     </g>
     <g id="text_7">
      <!-- $\mathdefault{10^{-8}}$ -->
      <g transform="translate(41.89899 216.439323)scale(0.2 -0.2)">
       <defs>
        <path id="DejaVuSans-38" d="M 2034 2216 
Q 1584 2216 1326 1975 
Q 1069 1734 1069 1313 
Q 1069 891 1326 650 
Q 1584 409 2034 409 
Q 2484 409 2743 651 
Q 3003 894 3003 1313 
Q 3003 1734 2745 1975 
Q 2488 2216 2034 2216 
z
M 1403 2484 
Q 997 2584 770 2862 
Q 544 3141 544 3541 
Q 544 4100 942 4425 
Q 1341 4750 2034 4750 
Q 2731 4750 3128 4425 
Q 3525 4100 3525 3541 
Q 3525 3141 3298 2862 
Q 3072 2584 2669 2484 
Q 3125 2378 3379 2068 
Q 3634 1759 3634 1313 
Q 3634 634 3220 271 
Q 2806 -91 2034 -91 
Q 1263 -91 848 271 
Q 434 634 434 1313 
Q 434 1759 690 2068 
Q 947 2378 1403 2484 
z
M 1172 3481 
Q 1172 3119 1398 2916 
Q 1625 2713 2034 2713 
Q 2441 2713 2670 2916 
Q 2900 3119 2900 3481 
Q 2900 3844 2670 4047 
Q 2441 4250 2034 4250 
Q 1625 4250 1398 4047 
Q 1172 3844 1172 3481 
z
" transform="scale(0.015625)"/>
       </defs>
       <use xlink:href="#DejaVuSans-31" transform="translate(0 0.765625)"/>
       <use xlink:href="#DejaVuSans-30" transform="translate(63.623047 0.765625)"/>
       <use xlink:href="#DejaVuSans-2212" transform="translate(128.203125 39.046875)scale(0.7)"/>
       <use xlink:href="#DejaVuSans-38" transform="translate(186.855469 39.046875)scale(0.7)"/>
      </g>
     </g>
    </g>
    <g id="ytick_3">
     <g id="line2d_33">
      <g>
       <use xlink:href="#m2e50375d9f" x="93.89899" y="153.941057" style="stroke: #000000; stroke-width: 0.8"/>
      </g>
     </g>
     <g id="text_8">
      <!-- $\mathdefault{10^{-6}}$ -->
      <g transform="translate(41.89899 161.539494)scale(0.2 -0.2)">
       <defs>
        <path id="DejaVuSans-36" d="M 2113 2584 
Q 1688 2584 1439 2293 
Q 1191 2003 1191 1497 
Q 1191 994 1439 701 
Q 1688 409 2113 409 
Q 2538 409 2786 701 
Q 3034 994 3034 1497 
Q 3034 2003 2786 2293 
Q 2538 2584 2113 2584 
z
M 3366 4563 
L 3366 3988 
Q 3128 4100 2886 4159 
Q 2644 4219 2406 4219 
Q 1781 4219 1451 3797 
Q 1122 3375 1075 2522 
Q 1259 2794 1537 2939 
Q 1816 3084 2150 3084 
Q 2853 3084 3261 2657 
Q 3669 2231 3669 1497 
Q 3669 778 3244 343 
Q 2819 -91 2113 -91 
Q 1303 -91 875 529 
Q 447 1150 447 2328 
Q 447 3434 972 4092 
Q 1497 4750 2381 4750 
Q 2619 4750 2861 4703 
Q 3103 4656 3366 4563 
z
" transform="scale(0.015625)"/>
       </defs>
       <use xlink:href="#DejaVuSans-31" transform="translate(0 0.765625)"/>
       <use xlink:href="#DejaVuSans-30" transform="translate(63.623047 0.765625)"/>
       <use xlink:href="#DejaVuSans-2212" transform="translate(128.203125 39.046875)scale(0.7)"/>
       <use xlink:href="#DejaVuSans-36" transform="translate(186.855469 39.046875)scale(0.7)"/>
      </g>
     </g>
    </g>
    <g id="ytick_4">
     <g id="line2d_34">
      <g>
       <use xlink:href="#m2e50375d9f" x="93.89899" y="99.041228" style="stroke: #000000; stroke-width: 0.8"/>
      </g>
     </g>
     <g id="text_9">
      <!-- $\mathdefault{10^{-4}}$ -->
      <g transform="translate(41.89899 106.639666)scale(0.2 -0.2)">
       <defs>
        <path id="DejaVuSans-34" d="M 2419 4116 
L 825 1625 
L 2419 1625 
L 2419 4116 
z
M 2253 4666 
L 3047 4666 
L 3047 1625 
L 3713 1625 
L 3713 1100 
L 3047 1100 
L 3047 0 
L 2419 0 
L 2419 1100 
L 313 1100 
L 313 1709 
L 2253 4666 
z
" transform="scale(0.015625)"/>
       </defs>
       <use xlink:href="#DejaVuSans-31" transform="translate(0 0.684375)"/>
       <use xlink:href="#DejaVuSans-30" transform="translate(63.623047 0.684375)"/>
       <use xlink:href="#DejaVuSans-2212" transform="translate(128.203125 38.965625)scale(0.7)"/>
       <use xlink:href="#DejaVuSans-34" transform="translate(186.855469 38.965625)scale(0.7)"/>
      </g>
     </g>
    </g>
    <g id="ytick_5">
     <g id="line2d_35">
      <g>
       <use xlink:href="#m2e50375d9f" x="93.89899" y="44.1414" style="stroke: #000000; stroke-width: 0.8"/>
      </g>
     </g>
     <g id="text_10">
      <!-- $\mathdefault{10^{-2}}$ -->
      <g transform="translate(41.89899 51.739837)scale(0.2 -0.2)">
       <use xlink:href="#DejaVuSans-31" transform="translate(0 0.765625)"/>
       <use xlink:href="#DejaVuSans-30" transform="translate(63.623047 0.765625)"/>
       <use xlink:href="#DejaVuSans-2212" transform="translate(128.203125 39.046875)scale(0.7)"/>
       <use xlink:href="#DejaVuSans-32" transform="translate(186.855469 39.046875)scale(0.7)"/>
      </g>
     </g>
    </g>
    <g id="text_11">
     <!-- $s_{n}$ -->
     <g transform="translate(24.275865 167.829063)rotate(-90)scale(0.28 -0.28)">
      <defs>
       <path id="DejaVuSans-Oblique-73" d="M 3200 3397 
L 3091 2853 
Q 2863 2978 2609 3040 
Q 2356 3103 2088 3103 
Q 1634 3103 1373 2948 
Q 1113 2794 1113 2528 
Q 1113 2219 1719 2053 
Q 1766 2041 1788 2034 
L 1972 1978 
Q 2547 1819 2739 1644 
Q 2931 1469 2931 1166 
Q 2931 609 2489 259 
Q 2047 -91 1331 -91 
Q 1053 -91 747 -37 
Q 441 16 72 128 
L 184 722 
Q 500 559 806 475 
Q 1113 391 1394 391 
Q 1816 391 2080 572 
Q 2344 753 2344 1031 
Q 2344 1331 1650 1516 
L 1591 1531 
L 1394 1581 
Q 956 1697 753 1886 
Q 550 2075 550 2369 
Q 550 2928 970 3256 
Q 1391 3584 2113 3584 
Q 2397 3584 2667 3537 
Q 2938 3491 3200 3397 
z
" transform="scale(0.015625)"/>
      </defs>
      <use xlink:href="#DejaVuSans-Oblique-73"/>
      <use xlink:href="#DejaVuSans-Oblique-6e" transform="translate(52.099609 -16.40625)scale(0.7)"/>
     </g>
    </g>
   </g>
   <g id="line2d_36">
    <path d="M 115.172438 48.196864 
L 157.871595 57.2977 
L 182.849001 62.907907 
L 200.570752 65.503308 
L 214.316811 68.601768 
L 225.548158 70.854709 
L 235.044127 72.146058 
L 243.26991 74.099348 
L 250.525564 76.085596 
L 257.015968 77.309556 
L 262.887252 78.266702 
L 268.247315 79.404968 
L 277.743284 82.006446 
L 281.993374 82.385346 
L 285.969067 83.451706 
L 289.703656 83.926804 
L 293.224721 85.276338 
L 296.555363 85.666044 
L 299.715125 86.365216 
L 302.72069 86.833499 
L 305.58641 88.33852 
L 308.324721 89.322466 
L 310.946473 89.73734 
L 315.877252 90.841115 
L 318.202127 91.648787 
L 324.692531 92.665987 
L 326.712445 93.237954 
L 328.668224 94.034877 
L 330.563815 94.451507 
L 332.402814 95.418123 
L 335.923878 96.626947 
L 339.25452 96.997737 
L 340.854658 97.31982 
L 342.414282 97.858679 
L 343.935393 98.152654 
L 345.419847 98.737713 
L 346.86937 98.902379 
L 348.285567 99.516354 
L 349.669937 99.689812 
L 351.023878 100.085827 
L 352.348701 100.713519 
L 353.64563 100.934455 
L 358.57641 102.599146 
L 359.749814 102.805334 
L 360.901284 103.2526 
L 362.031625 103.564653 
L 363.141599 103.579801 
L 364.231926 104.254962 
L 366.356338 104.714865 
L 367.391688 104.757003 
L 369.411602 105.61742 
L 370.397253 105.722814 
L 372.322468 106.645075 
L 373.262973 107.215804 
L 375.101971 107.456795 
L 376.001284 107.727463 
L 377.761457 107.868705 
L 379.47273 109.200688 
L 380.310863 109.257652 
L 381.953677 109.694336 
L 382.758942 109.900809 
L 385.11344 111.008795 
L 385.87869 111.060926 
L 386.63455 111.361485 
L 387.381249 111.483453 
L 388.119005 111.843737 
L 388.848029 112.071957 
L 389.568527 112.507248 
L 390.280695 112.675297 
L 391.680798 113.245447 
L 392.369094 113.394128 
L 393.049784 113.991001 
L 393.723036 114.147153 
L 394.389008 114.593706 
L 396.344787 115.511642 
L 397.614974 115.729117 
L 398.859498 116.363654 
L 399.472457 116.831084 
L 400.079377 117.119917 
L 400.680375 117.253151 
L 401.275567 117.576982 
L 403.027397 118.958458 
L 403.600441 119.249291 
L 404.168204 119.341954 
L 404.730782 119.742353 
L 405.288269 120.293043 
L 405.840756 120.65053 
L 406.388332 121.314181 
L 406.931083 121.513196 
L 407.469094 122.507907 
L 408.002447 123.031085 
L 408.531221 123.12084 
L 409.575346 125.029352 
L 410.090845 125.460126 
L 410.602067 125.736054 
L 411.611956 127.231462 
L 412.11076 127.499183 
L 412.605556 129.321589 
L 413.09641 129.610847 
L 413.583384 130.118707 
L 414.066538 130.443339 
L 414.545933 131.237533 
L 415.021625 132.461243 
L 415.96213 134.241199 
L 416.427052 134.533002 
L 416.888491 134.976052 
L 417.3465 135.707911 
L 417.801128 136.054249 
L 418.252426 136.939703 
L 418.700441 137.517953 
L 419.145222 138.364708 
L 419.586814 139.958058 
L 420.025264 140.217074 
L 420.460614 141.106939 
L 420.89291 141.176029 
L 421.322193 142.321938 
L 421.748505 143.810676 
L 422.592379 145.224495 
L 423.010021 146.283186 
L 423.42485 146.554254 
L 423.836904 147.27394 
L 424.652834 148.336274 
L 425.056782 149.362351 
L 425.458099 150.839585 
L 426.252973 151.547608 
L 426.646596 152.16031 
L 427.03772 152.987112 
L 427.426377 153.287645 
L 427.812597 154.127307 
L 428.19641 154.202732 
L 428.577847 155.913162 
L 429.333708 157.709206 
L 429.708188 158.273848 
L 430.080406 159.254959 
L 430.450388 159.39779 
L 430.818162 159.790735 
L 431.183753 160.854441 
L 431.547186 161.341405 
L 431.908489 162.201537 
L 432.267684 162.686052 
L 432.624797 162.878745 
L 432.979852 163.461742 
L 433.332873 165.085275 
L 433.683881 165.540639 
L 434.032901 165.753031 
L 434.379955 166.102644 
L 434.725064 166.914005 
L 435.068251 167.149644 
L 435.748942 168.384603 
L 436.086487 169.349098 
L 437.088165 170.428483 
L 437.418471 171.058025 
L 437.747015 171.311571 
L 438.722263 173.156812 
L 439.043944 173.329726 
L 439.682311 174.376054 
L 440.314131 175.077817 
L 440.627627 175.913238 
L 440.939536 176.026054 
L 441.249873 176.269119 
L 441.558655 176.917423 
L 441.865897 176.932584 
L 442.171614 177.331237 
L 442.475821 177.487046 
L 443.379532 179.118818 
L 443.677847 179.319494 
L 443.974724 180.122212 
L 445.148128 181.158672 
L 446.013743 182.926919 
L 446.299599 183.523849 
L 446.584134 183.819786 
L 446.867362 183.857664 
L 448.264289 185.690368 
L 449.087489 186.115233 
L 450.966559 188.811059 
L 451.230378 188.957945 
L 451.493073 189.234395 
L 452.274503 190.624486 
L 452.790003 190.94578 
L 454.56102 193.215566 
L 454.809917 193.927072 
L 455.795568 194.697766 
L 456.039536 195.228245 
L 456.524592 195.556998 
L 457.483395 196.557832 
L 457.957258 197.263669 
L 458.19283 197.452498 
L 458.427504 197.898388 
L 458.894187 198.119249 
L 459.126209 198.767522 
L 459.357361 198.804602 
L 459.587648 199.177172 
L 459.817078 199.235334 
L 460.500285 199.849593 
L 460.726347 200.315912 
L 461.62239 201.052077 
L 461.844379 201.575175 
L 462.065571 201.713875 
L 462.505586 202.368698 
L 463.159771 202.836496 
L 463.592067 203.463935 
L 464.02135 203.760087 
L 464.234875 204.135312 
L 464.659717 204.448653 
L 465.291537 204.995482 
L 465.709178 205.335316 
L 466.536061 206.53923 
L 469.149256 208.988727 
L 469.345753 209.476016 
L 471.466841 211.471378 
L 471.656094 211.78692 
L 471.844768 211.829787 
L 472.22039 212.361972 
L 472.407346 212.433558 
L 472.779563 212.975157 
L 473.149546 213.297421 
L 473.517319 213.806151 
L 473.700386 213.847843 
L 473.88291 214.113397 
L 474.064895 214.162396 
L 474.246344 214.414046 
L 474.607646 214.622656 
L 474.787505 215.046705 
L 475.145657 215.385551 
L 475.501738 215.836897 
L 477.938287 218.424828 
L 478.108694 218.444297 
L 478.953726 219.430333 
L 479.288519 219.962211 
L 479.952697 220.482053 
L 480.117628 220.640225 
L 480.446172 221.084456 
L 480.772973 221.16738 
L 480.935726 221.684376 
L 481.09805 221.699315 
L 481.42142 222.121436 
L 482.063112 222.672236 
L 482.222496 222.792033 
L 482.698188 223.475184 
L 482.85594 223.488592 
L 484.103615 224.910512 
L 484.411625 225.19133 
L 484.870771 225.550281 
L 485.023063 225.55104 
L 485.326521 225.946585 
L 485.628491 226.676173 
L 486.07869 226.794311 
L 486.228028 226.934216 
L 486.377004 227.321742 
L 486.673881 227.442272 
L 487.116531 227.778825 
L 487.263377 227.971022 
L 487.556023 228.436178 
L 488.425711 229.323062 
L 488.569473 229.336073 
L 488.998756 230.070246 
L 489.283291 230.159188 
L 489.566519 230.400526 
L 489.84845 230.935036 
L 490.408471 231.416416 
L 490.686584 231.863644 
L 490.963446 232.043705 
L 491.376421 232.273976 
L 491.922783 232.938227 
L 492.058619 232.95319 
L 492.329397 233.401729 
L 492.59899 233.567827 
L 492.867408 233.663164 
L 493.400761 234.459609 
L 493.797767 234.662541 
L 494.192231 234.942703 
L 494.45381 235.60362 
L 495.10294 236.185449 
L 495.360689 236.396487 
L 495.617364 236.594478 
L 496.127527 237.202525 
L 496.25441 237.314961 
L 496.507396 237.681213 
L 496.759346 237.850153 
L 497.135351 238.379284 
L 497.509074 238.586379 
L 497.756969 239.058394 
L 497.880544 239.089394 
L 498.249787 239.664166 
L 498.494725 239.854009 
L 498.738693 240.123256 
L 499.102843 240.321499 
L 499.344419 240.845745 
L 499.464853 240.901308 
L 499.705016 241.248054 
L 499.944247 241.341554 
L 500.182553 241.585147 
L 500.30136 241.66535 
L 500.656415 242.137742 
L 501.593344 243.127098 
L 501.709464 243.229879 
L 501.941051 243.610698 
L 502.401627 244.032742 
L 502.516236 244.052937 
L 502.858786 244.565086 
L 503.0861 244.794395 
L 503.65074 245.352092 
L 503.987057 245.671233 
L 504.210252 245.982005 
L 504.432642 246.203231 
L 504.985129 246.921502 
L 505.095034 246.92645 
L 505.314258 247.236827 
L 505.641638 247.408053 
L 505.858929 247.754938 
L 505.967287 247.810843 
L 506.183434 248.121701 
L 506.50624 248.488086 
L 507.040518 248.976544 
L 507.464629 249.552171 
L 509.029536 251.230529 
L 509.337802 251.485516 
L 509.440216 251.531681 
L 509.74644 252.043559 
L 510.956335 253.426468 
L 511.35441 253.857734 
L 511.453528 253.884558 
L 512.142925 254.784923 
L 512.436035 254.977733 
L 512.824691 255.553778 
L 512.921474 255.589834 
L 513.690306 256.733689 
L 513.976162 257.014799 
L 514.732022 257.797375 
L 514.919547 257.994257 
L 515.106503 258.300031 
L 516.124739 259.42158 
L 516.308078 259.649057 
L 516.582067 259.934655 
L 522.48648 266.991945 
L 522.734375 267.367199 
L 522.981276 267.602715 
L 523.716099 268.432512 
L 523.959104 268.793714 
L 524.201155 269.045078 
L 524.602472 269.489238 
L 524.921653 269.722133 
L 525.869393 271.077836 
L 525.947717 271.089806 
L 526.104067 271.413823 
L 526.33785 271.609953 
L 526.57075 271.91194 
L 527.340783 272.930347 
L 527.646121 273.193595 
L 527.874136 273.651159 
L 528.252295 274.14637 
L 528.40291 274.238078 
L 528.852561 274.92213 
L 529.076162 275.104783 
L 529.224779 275.216711 
L 529.447035 275.490534 
L 529.520942 275.536471 
L 529.742134 275.941146 
L 531.124868 277.824227 
L 531.340385 278.146059 
L 532.33628 279.527949 
L 532.617889 279.871553 
L 532.9681 280.21918 
L 533.246841 280.67992 
L 533.593505 280.996676 
L 533.869437 281.437979 
L 534.485803 282.308545 
L 535.163498 282.93237 
L 535.365362 283.23475 
L 536.825819 285.367198 
L 536.956887 285.467757 
L 537.931106 286.939324 
L 538.380523 287.53094 
L 538.572131 287.817714 
L 538.763144 288.128244 
L 538.953567 288.42681 
L 539.016911 288.440564 
L 539.269637 288.83635 
L 539.395612 288.928948 
L 539.959334 289.825317 
L 540.456126 290.66003 
L 540.641395 290.946174 
L 540.641395 290.946174 
" clip-path="url(#p5a58270de6)" style="fill: none; stroke: #f8a953; stroke-width: 4; stroke-linecap: square"/>
   </g>
   <g id="line2d_37">
    <path d="M 115.172438 16.711951 
L 157.871595 24.023892 
L 182.849001 25.367298 
L 200.570752 28.238895 
L 214.316811 29.513371 
L 225.548158 31.948637 
L 235.044127 32.2897 
L 243.26991 35.514748 
L 250.525564 37.907878 
L 257.015968 39.667541 
L 262.887252 39.977598 
L 268.247315 40.13714 
L 277.743284 41.565054 
L 281.993374 42.978703 
L 285.969067 43.3581 
L 289.703656 44.844314 
L 296.555363 45.448049 
L 299.715125 46.852815 
L 302.72069 47.279664 
L 305.58641 48.641035 
L 308.324721 48.769525 
L 310.946473 49.428864 
L 318.202127 50.508794 
L 322.604132 51.362111 
L 324.692531 52.776259 
L 326.712445 52.920575 
L 328.668224 54.004292 
L 332.402814 54.736354 
L 334.1885 55.087802 
L 335.923878 56.143441 
L 337.611706 56.682516 
L 342.414282 57.303396 
L 345.419847 58.069796 
L 348.285567 58.785233 
L 349.669937 59.72615 
L 351.023878 60.035475 
L 352.348701 60.093798 
L 354.915816 60.825651 
L 356.160341 60.866596 
L 359.749814 61.583458 
L 360.901284 62.032224 
L 363.141599 62.419193 
L 364.231926 62.766773 
L 368.409924 63.608313 
L 372.322468 64.65449 
L 373.262973 64.759644 
L 374.189334 65.110869 
L 377.761457 65.660518 
L 378.623036 66.182929 
L 380.310863 66.505758 
L 381.953677 66.839499 
L 382.758942 67.061647 
L 383.553815 67.449801 
L 385.87869 67.765806 
L 386.63455 68.022151 
L 387.381249 68.11991 
L 388.119005 68.420955 
L 390.984724 69.125913 
L 395.699735 70.512666 
L 396.344787 70.575198 
L 397.614974 71.200775 
L 398.859498 71.467618 
L 404.168204 72.881785 
L 404.730782 72.892991 
L 405.288269 73.044215 
L 405.840756 73.351549 
L 406.388332 73.36174 
L 406.931083 73.595258 
L 408.002447 73.742425 
L 409.575346 74.316656 
L 410.602067 74.437869 
L 413.583384 75.276118 
L 414.066538 75.504744 
L 415.96213 75.86409 
L 416.427052 76.177108 
L 416.888491 76.337416 
L 417.801128 76.484418 
L 423.836904 78.033849 
L 424.24622 78.280354 
L 425.856818 78.582752 
L 426.646596 78.831347 
L 427.426377 79.137062 
L 427.812597 79.149115 
L 428.577847 79.361632 
L 429.333708 79.571228 
L 430.080406 79.823104 
L 431.183753 80.220991 
L 431.908489 80.323445 
L 432.624797 80.533715 
L 433.683881 80.860901 
L 438.073816 82.02997 
L 438.398893 82.21865 
L 439.043944 82.333564 
L 439.999031 82.776345 
L 440.627627 82.968141 
L 442.778534 83.430219 
L 443.379532 83.700175 
L 443.974724 83.934464 
L 445.148128 84.256762 
L 445.726554 84.46009 
L 447.42994 84.837179 
L 447.709314 85.011037 
L 448.539913 85.200831 
L 449.359462 85.41977 
L 449.63024 85.619013 
L 450.168251 85.710318 
L 453.301224 86.664531 
L 454.060189 86.991192 
L 454.56102 87.104644 
L 455.304713 87.285311 
L 456.524592 87.772818 
L 457.005859 87.88159 
L 457.483395 88.137597 
L 458.894187 88.496502 
L 461.175998 89.123742 
L 461.399599 89.398049 
L 462.065571 89.58134 
L 465.916942 90.859362 
L 466.536061 91.047889 
L 467.75594 91.358449 
L 468.754371 91.683464 
L 469.149256 91.777756 
L 469.541626 91.912037 
L 474.42726 93.54184 
L 474.966841 93.755753 
L 475.323955 93.874179 
L 475.67901 94.039688 
L 476.207784 94.230136 
L 478.448099 94.989267 
L 479.952697 95.482259 
L 480.60979 95.738795 
L 480.935726 95.834335 
L 482.698188 96.483405 
L 483.638693 96.831158 
L 483.94903 96.999881 
L 484.411625 97.079832 
L 484.718102 97.255779 
L 485.326521 97.452554 
L 485.628491 97.618049 
L 486.07869 97.74632 
L 487.263377 98.186897 
L 496.884936 101.814538 
L 497.260177 102.050242 
L 497.880544 102.221236 
L 498.249787 102.362577 
L 498.738693 102.582167 
L 499.344419 102.825804 
L 506.183434 105.642847 
L 506.934032 105.982619 
L 507.675594 106.288673 
L 508.30419 106.579918 
L 508.926436 106.874696 
L 509.440216 107.086354 
L 510.051149 107.3741 
L 510.555671 107.5792 
L 511.056095 107.844537 
L 511.255132 107.931585 
L 513.881024 108.992054 
L 514.165998 109.161751 
L 514.44966 109.248242 
L 514.732022 109.4221 
L 515.663989 109.861119 
L 516.490873 110.214457 
L 517.036025 110.508855 
L 517.486663 110.677815 
L 519.518163 111.630278 
L 520.037283 111.862673 
L 523.553561 113.545122 
L 525.397345 114.447796 
L 525.633821 114.55733 
L 526.260021 114.901707 
L 526.57075 115.013904 
L 527.033924 115.243605 
L 529.001718 116.211154 
L 529.668492 116.615627 
L 530.182149 116.855916 
L 530.836334 117.175203 
L 531.340385 117.394765 
L 531.982449 117.762698 
L 532.688091 118.111118 
L 532.9681 118.242037 
L 533.593505 118.611198 
L 534.075579 118.89254 
L 535.967012 119.943942 
L 537.152967 120.610219 
L 537.608075 120.833538 
L 540.641395 122.64096 
L 540.641395 122.64096 
" clip-path="url(#p5a58270de6)" style="fill: none; stroke: #8ca3f1; stroke-width: 4; stroke-linecap: square"/>
   </g>
   <g id="line2d_38">
    <path d="M 115.172438 48.196864 
L 540.641395 130.53468 
L 540.641395 130.53468 
" clip-path="url(#p5a58270de6)" style="fill: none; stroke-dasharray: 7.4,3.2; stroke-dashoffset: 0; stroke: #888888; stroke-width: 2"/>
   </g>
   <g id="line2d_39">
    <path d="M 115.172438 16.711951 
L 540.641395 99.049767 
L 540.641395 99.049767 
" clip-path="url(#p5a58270de6)" style="fill: none; stroke-dasharray: 7.4,3.2; stroke-dashoffset: 0; stroke: #888888; stroke-width: 2"/>
   </g>
   <g id="patch_3">
    <path d="M 93.89899 304.657885 
L 93.89899 3.00024 
" style="fill: none; stroke: #000000; stroke-width: 0.8; stroke-linejoin: miter; stroke-linecap: square"/>
   </g>
   <g id="patch_4">
    <path d="M 93.89899 304.657885 
L 561.914843 304.657885 
" style="fill: none; stroke: #000000; stroke-width: 0.8; stroke-linejoin: miter; stroke-linecap: square"/>
   </g>
  </g>
 </g>
 <defs>
  <clipPath id="p5a58270de6">
   <rect x="93.89899" y="3.00024" width="468.015853" height="301.657645"/>
  </clipPath>
 </defs>
</svg>
