<?xml version="1.0" encoding="utf-8" standalone="no"?>
<!DOCTYPE svg PUBLIC "-//W3C//DTD SVG 1.1//EN"
  "http://www.w3.org/Graphics/SVG/1.1/DTD/svg11.dtd">
<svg xmlns:xlink="http://www.w3.org/1999/xlink" width="566.64pt" height="367.92pt" viewBox="0 0 566.64 367.92" xmlns="http://www.w3.org/2000/svg" version="1.1">
 <metadata>
  <rdf:RDF xmlns:dc="http://purl.org/dc/elements/1.1/" xmlns:cc="http://creativecommons.org/ns#" xmlns:rdf="http://www.w3.org/1999/02/22-rdf-syntax-ns#">
   <cc:Work>
    <dc:type rdf:resource="http://purl.org/dc/dcmitype/StillImage"/>
    <dc:date>2022-04-05T18:04:00.193032</dc:date>
    <dc:format>image/svg+xml</dc:format>
    <dc:creator>
     <cc:Agent>
      <dc:title>Matplotlib v3.5.1, https://matplotlib.org/</dc:title>
     </cc:Agent>
    </dc:creator>
   </cc:Work>
  </rdf:RDF>
 </metadata>
 <defs>
  <style type="text/css">*{stroke-linejoin: round; stroke-linecap: butt}</style>
 </defs>
 <g id="figure_1">
  <g id="patch_1">
   <path d="M 0 367.92 
L 566.64 367.92 
L 566.64 0 
L 0 0 
L 0 367.92 
z
" style="fill: none"/>
  </g>
  <g id="axes_1">
   <g id="patch_2">
    <path d="M 85.09899 304.657885 
L 563.63976 304.657885 
L 563.63976 3.00024 
L 85.09899 3.00024 
z
" style="fill: #ffffff"/>
   </g>
   <g id="matplotlib.axis_1">
    <g id="xtick_1">
     <g id="line2d_1">
      <defs>
       <path id="mc4abe6b6c7" d="M 0 0 
L 0 3.5 
" style="stroke: #000000; stroke-width: 0.8"/>
      </defs>
      <g>
       <use xlink:href="#mc4abe6b6c7" x="106.850843" y="304.657885" style="stroke: #000000; stroke-width: 0.8"/>
      </g>
     </g>
     <g id="text_1">
      <!-- $\mathdefault{10^{0}}$ -->
      <g transform="translate(83.970843 329.413823)scale(0.26 -0.26)">
       <defs>
        <path id="DejaVuSans-31" d="M 794 531 
L 1825 531 
L 1825 4091 
L 703 3866 
L 703 4441 
L 1819 4666 
L 2450 4666 
L 2450 531 
L 3481 531 
L 3481 0 
L 794 0 
L 794 531 
z
" transform="scale(0.015625)"/>
        <path id="DejaVuSans-30" d="M 2034 4250 
Q 1547 4250 1301 3770 
Q 1056 3291 1056 2328 
Q 1056 1369 1301 889 
Q 1547 409 2034 409 
Q 2525 409 2770 889 
Q 3016 1369 3016 2328 
Q 3016 3291 2770 3770 
Q 2525 4250 2034 4250 
z
M 2034 4750 
Q 2819 4750 3233 4129 
Q 3647 3509 3647 2328 
Q 3647 1150 3233 529 
Q 2819 -91 2034 -91 
Q 1250 -91 836 529 
Q 422 1150 422 2328 
Q 422 3509 836 4129 
Q 1250 4750 2034 4750 
z
" transform="scale(0.015625)"/>
       </defs>
       <use xlink:href="#DejaVuSans-31" transform="translate(0 0.765625)"/>
       <use xlink:href="#DejaVuSans-30" transform="translate(63.623047 0.765625)"/>
       <use xlink:href="#DejaVuSans-30" transform="translate(128.203125 39.046875)scale(0.7)"/>
      </g>
     </g>
    </g>
    <g id="xtick_2">
     <g id="line2d_2">
      <g>
       <use xlink:href="#mc4abe6b6c7" x="336.104033" y="304.657885" style="stroke: #000000; stroke-width: 0.8"/>
      </g>
     </g>
     <g id="text_2">
      <!-- $\mathdefault{10^{1}}$ -->
      <g transform="translate(313.224033 329.413823)scale(0.26 -0.26)">
       <use xlink:href="#DejaVuSans-31" transform="translate(0 0.684375)"/>
       <use xlink:href="#DejaVuSans-30" transform="translate(63.623047 0.684375)"/>
       <use xlink:href="#DejaVuSans-31" transform="translate(128.203125 38.965625)scale(0.7)"/>
      </g>
     </g>
    </g>
    <g id="xtick_3">
     <g id="line2d_3">
      <defs>
       <path id="m070b734a92" d="M 0 0 
L 0 2 
" style="stroke: #000000; stroke-width: 0.4"/>
      </defs>
      <g>
       <use xlink:href="#m070b734a92" x="96.360793" y="304.657885" style="stroke: #000000; stroke-width: 0.4"/>
      </g>
     </g>
    </g>
    <g id="xtick_4">
     <g id="line2d_4">
      <g>
       <use xlink:href="#m070b734a92" x="175.86293" y="304.657885" style="stroke: #000000; stroke-width: 0.4"/>
      </g>
     </g>
    </g>
    <g id="xtick_5">
     <g id="line2d_5">
      <g>
       <use xlink:href="#m070b734a92" x="216.232413" y="304.657885" style="stroke: #000000; stroke-width: 0.4"/>
      </g>
     </g>
    </g>
    <g id="xtick_6">
     <g id="line2d_6">
      <g>
       <use xlink:href="#m070b734a92" x="244.875017" y="304.657885" style="stroke: #000000; stroke-width: 0.4"/>
      </g>
     </g>
    </g>
    <g id="xtick_7">
     <g id="line2d_7">
      <g>
       <use xlink:href="#m070b734a92" x="267.091946" y="304.657885" style="stroke: #000000; stroke-width: 0.4"/>
      </g>
     </g>
    </g>
    <g id="xtick_8">
     <g id="line2d_8">
      <g>
       <use xlink:href="#m070b734a92" x="285.244499" y="304.657885" style="stroke: #000000; stroke-width: 0.4"/>
      </g>
     </g>
    </g>
    <g id="xtick_9">
     <g id="line2d_9">
      <g>
       <use xlink:href="#m070b734a92" x="300.592265" y="304.657885" style="stroke: #000000; stroke-width: 0.4"/>
      </g>
     </g>
    </g>
    <g id="xtick_10">
     <g id="line2d_10">
      <g>
       <use xlink:href="#m070b734a92" x="313.887103" y="304.657885" style="stroke: #000000; stroke-width: 0.4"/>
      </g>
     </g>
    </g>
    <g id="xtick_11">
     <g id="line2d_11">
      <g>
       <use xlink:href="#m070b734a92" x="325.613982" y="304.657885" style="stroke: #000000; stroke-width: 0.4"/>
      </g>
     </g>
    </g>
    <g id="xtick_12">
     <g id="line2d_12">
      <g>
       <use xlink:href="#m070b734a92" x="405.11612" y="304.657885" style="stroke: #000000; stroke-width: 0.4"/>
      </g>
     </g>
    </g>
    <g id="xtick_13">
     <g id="line2d_13">
      <g>
       <use xlink:href="#m070b734a92" x="445.485602" y="304.657885" style="stroke: #000000; stroke-width: 0.4"/>
      </g>
     </g>
    </g>
    <g id="xtick_14">
     <g id="line2d_14">
      <g>
       <use xlink:href="#m070b734a92" x="474.128206" y="304.657885" style="stroke: #000000; stroke-width: 0.4"/>
      </g>
     </g>
    </g>
    <g id="xtick_15">
     <g id="line2d_15">
      <g>
       <use xlink:href="#m070b734a92" x="496.345136" y="304.657885" style="stroke: #000000; stroke-width: 0.4"/>
      </g>
     </g>
    </g>
    <g id="xtick_16">
     <g id="line2d_16">
      <g>
       <use xlink:href="#m070b734a92" x="514.497689" y="304.657885" style="stroke: #000000; stroke-width: 0.4"/>
      </g>
     </g>
    </g>
    <g id="xtick_17">
     <g id="line2d_17">
      <g>
       <use xlink:href="#m070b734a92" x="529.845454" y="304.657885" style="stroke: #000000; stroke-width: 0.4"/>
      </g>
     </g>
    </g>
    <g id="xtick_18">
     <g id="line2d_18">
      <g>
       <use xlink:href="#m070b734a92" x="543.140293" y="304.657885" style="stroke: #000000; stroke-width: 0.4"/>
      </g>
     </g>
    </g>
    <g id="xtick_19">
     <g id="line2d_19">
      <g>
       <use xlink:href="#m070b734a92" x="554.867172" y="304.657885" style="stroke: #000000; stroke-width: 0.4"/>
      </g>
     </g>
    </g>
    <g id="text_3">
     <!-- $n$ -->
     <g transform="translate(315.409375 359.096635)scale(0.28 -0.28)">
      <defs>
       <path id="DejaVuSans-Oblique-6e" d="M 3566 2113 
L 3156 0 
L 2578 0 
L 2988 2091 
Q 3016 2238 3031 2350 
Q 3047 2463 3047 2528 
Q 3047 2791 2881 2937 
Q 2716 3084 2419 3084 
Q 1956 3084 1622 2776 
Q 1288 2469 1184 1941 
L 800 0 
L 225 0 
L 903 3500 
L 1478 3500 
L 1363 2950 
Q 1603 3253 1940 3418 
Q 2278 3584 2650 3584 
Q 3113 3584 3367 3334 
Q 3622 3084 3622 2631 
Q 3622 2519 3608 2391 
Q 3594 2263 3566 2113 
z
" transform="scale(0.015625)"/>
      </defs>
      <use xlink:href="#DejaVuSans-Oblique-6e"/>
     </g>
    </g>
   </g>
   <g id="matplotlib.axis_2">
    <g id="ytick_1">
     <g id="line2d_20">
      <defs>
       <path id="m189916692d" d="M 0 0 
L -3.5 0 
" style="stroke: #000000; stroke-width: 0.8"/>
      </defs>
      <g>
       <use xlink:href="#m189916692d" x="85.09899" y="257.341163" style="stroke: #000000; stroke-width: 0.8"/>
      </g>
     </g>
     <g id="text_4">
      <!-- $\mathdefault{10^{-4}}$ -->
      <g transform="translate(33.09899 264.9396)scale(0.2 -0.2)">
       <defs>
        <path id="DejaVuSans-2212" d="M 678 2272 
L 4684 2272 
L 4684 1741 
L 678 1741 
L 678 2272 
z
" transform="scale(0.015625)"/>
        <path id="DejaVuSans-34" d="M 2419 4116 
L 825 1625 
L 2419 1625 
L 2419 4116 
z
M 2253 4666 
L 3047 4666 
L 3047 1625 
L 3713 1625 
L 3713 1100 
L 3047 1100 
L 3047 0 
L 2419 0 
L 2419 1100 
L 313 1100 
L 313 1709 
L 2253 4666 
z
" transform="scale(0.015625)"/>
       </defs>
       <use xlink:href="#DejaVuSans-31" transform="translate(0 0.684375)"/>
       <use xlink:href="#DejaVuSans-30" transform="translate(63.623047 0.684375)"/>
       <use xlink:href="#DejaVuSans-2212" transform="translate(128.203125 38.965625)scale(0.7)"/>
       <use xlink:href="#DejaVuSans-34" transform="translate(186.855469 38.965625)scale(0.7)"/>
      </g>
     </g>
    </g>
    <g id="ytick_2">
     <g id="line2d_21">
      <g>
       <use xlink:href="#m189916692d" x="85.09899" y="177.111487" style="stroke: #000000; stroke-width: 0.8"/>
      </g>
     </g>
     <g id="text_5">
      <!-- $\mathdefault{10^{-3}}$ -->
      <g transform="translate(33.09899 184.709924)scale(0.2 -0.2)">
       <defs>
        <path id="DejaVuSans-33" d="M 2597 2516 
Q 3050 2419 3304 2112 
Q 3559 1806 3559 1356 
Q 3559 666 3084 287 
Q 2609 -91 1734 -91 
Q 1441 -91 1130 -33 
Q 819 25 488 141 
L 488 750 
Q 750 597 1062 519 
Q 1375 441 1716 441 
Q 2309 441 2620 675 
Q 2931 909 2931 1356 
Q 2931 1769 2642 2001 
Q 2353 2234 1838 2234 
L 1294 2234 
L 1294 2753 
L 1863 2753 
Q 2328 2753 2575 2939 
Q 2822 3125 2822 3475 
Q 2822 3834 2567 4026 
Q 2313 4219 1838 4219 
Q 1578 4219 1281 4162 
Q 984 4106 628 3988 
L 628 4550 
Q 988 4650 1302 4700 
Q 1616 4750 1894 4750 
Q 2613 4750 3031 4423 
Q 3450 4097 3450 3541 
Q 3450 3153 3228 2886 
Q 3006 2619 2597 2516 
z
" transform="scale(0.015625)"/>
       </defs>
       <use xlink:href="#DejaVuSans-31" transform="translate(0 0.765625)"/>
       <use xlink:href="#DejaVuSans-30" transform="translate(63.623047 0.765625)"/>
       <use xlink:href="#DejaVuSans-2212" transform="translate(128.203125 39.046875)scale(0.7)"/>
       <use xlink:href="#DejaVuSans-33" transform="translate(186.855469 39.046875)scale(0.7)"/>
      </g>
     </g>
    </g>
    <g id="ytick_3">
     <g id="line2d_22">
      <g>
       <use xlink:href="#m189916692d" x="85.09899" y="96.881811" style="stroke: #000000; stroke-width: 0.8"/>
      </g>
     </g>
     <g id="text_6">
      <!-- $\mathdefault{10^{-2}}$ -->
      <g transform="translate(33.09899 104.480248)scale(0.2 -0.2)">
       <defs>
        <path id="DejaVuSans-32" d="M 1228 531 
L 3431 531 
L 3431 0 
L 469 0 
L 469 531 
Q 828 903 1448 1529 
Q 2069 2156 2228 2338 
Q 2531 2678 2651 2914 
Q 2772 3150 2772 3378 
Q 2772 3750 2511 3984 
Q 2250 4219 1831 4219 
Q 1534 4219 1204 4116 
Q 875 4013 500 3803 
L 500 4441 
Q 881 4594 1212 4672 
Q 1544 4750 1819 4750 
Q 2544 4750 2975 4387 
Q 3406 4025 3406 3419 
Q 3406 3131 3298 2873 
Q 3191 2616 2906 2266 
Q 2828 2175 2409 1742 
Q 1991 1309 1228 531 
z
" transform="scale(0.015625)"/>
       </defs>
       <use xlink:href="#DejaVuSans-31" transform="translate(0 0.765625)"/>
       <use xlink:href="#DejaVuSans-30" transform="translate(63.623047 0.765625)"/>
       <use xlink:href="#DejaVuSans-2212" transform="translate(128.203125 39.046875)scale(0.7)"/>
       <use xlink:href="#DejaVuSans-32" transform="translate(186.855469 39.046875)scale(0.7)"/>
      </g>
     </g>
    </g>
    <g id="ytick_4">
     <g id="line2d_23">
      <g>
       <use xlink:href="#m189916692d" x="85.09899" y="16.652135" style="stroke: #000000; stroke-width: 0.8"/>
      </g>
     </g>
     <g id="text_7">
      <!-- $\mathdefault{10^{-1}}$ -->
      <g transform="translate(33.09899 24.250572)scale(0.2 -0.2)">
       <use xlink:href="#DejaVuSans-31" transform="translate(0 0.684375)"/>
       <use xlink:href="#DejaVuSans-30" transform="translate(63.623047 0.684375)"/>
       <use xlink:href="#DejaVuSans-2212" transform="translate(128.203125 38.965625)scale(0.7)"/>
       <use xlink:href="#DejaVuSans-31" transform="translate(186.855469 38.965625)scale(0.7)"/>
      </g>
     </g>
    </g>
    <g id="ytick_5">
     <g id="line2d_24">
      <defs>
       <path id="mfccd69c12d" d="M 0 0 
L -2 0 
" style="stroke: #000000; stroke-width: 0.4"/>
      </defs>
      <g>
       <use xlink:href="#mfccd69c12d" x="85.09899" y="299.291555" style="stroke: #000000; stroke-width: 0.4"/>
      </g>
     </g>
    </g>
    <g id="ytick_6">
     <g id="line2d_25">
      <g>
       <use xlink:href="#mfccd69c12d" x="85.09899" y="289.267761" style="stroke: #000000; stroke-width: 0.4"/>
      </g>
     </g>
    </g>
    <g id="ytick_7">
     <g id="line2d_26">
      <g>
       <use xlink:href="#mfccd69c12d" x="85.09899" y="281.492702" style="stroke: #000000; stroke-width: 0.4"/>
      </g>
     </g>
    </g>
    <g id="ytick_8">
     <g id="line2d_27">
      <g>
       <use xlink:href="#mfccd69c12d" x="85.09899" y="275.140016" style="stroke: #000000; stroke-width: 0.4"/>
      </g>
     </g>
    </g>
    <g id="ytick_9">
     <g id="line2d_28">
      <g>
       <use xlink:href="#mfccd69c12d" x="85.09899" y="269.768897" style="stroke: #000000; stroke-width: 0.4"/>
      </g>
     </g>
    </g>
    <g id="ytick_10">
     <g id="line2d_29">
      <g>
       <use xlink:href="#mfccd69c12d" x="85.09899" y="265.116222" style="stroke: #000000; stroke-width: 0.4"/>
      </g>
     </g>
    </g>
    <g id="ytick_11">
     <g id="line2d_30">
      <g>
       <use xlink:href="#mfccd69c12d" x="85.09899" y="261.012271" style="stroke: #000000; stroke-width: 0.4"/>
      </g>
     </g>
    </g>
    <g id="ytick_12">
     <g id="line2d_31">
      <g>
       <use xlink:href="#mfccd69c12d" x="85.09899" y="233.189624" style="stroke: #000000; stroke-width: 0.4"/>
      </g>
     </g>
    </g>
    <g id="ytick_13">
     <g id="line2d_32">
      <g>
       <use xlink:href="#mfccd69c12d" x="85.09899" y="219.061879" style="stroke: #000000; stroke-width: 0.4"/>
      </g>
     </g>
    </g>
    <g id="ytick_14">
     <g id="line2d_33">
      <g>
       <use xlink:href="#mfccd69c12d" x="85.09899" y="209.038085" style="stroke: #000000; stroke-width: 0.4"/>
      </g>
     </g>
    </g>
    <g id="ytick_15">
     <g id="line2d_34">
      <g>
       <use xlink:href="#mfccd69c12d" x="85.09899" y="201.263026" style="stroke: #000000; stroke-width: 0.4"/>
      </g>
     </g>
    </g>
    <g id="ytick_16">
     <g id="line2d_35">
      <g>
       <use xlink:href="#mfccd69c12d" x="85.09899" y="194.91034" style="stroke: #000000; stroke-width: 0.4"/>
      </g>
     </g>
    </g>
    <g id="ytick_17">
     <g id="line2d_36">
      <g>
       <use xlink:href="#mfccd69c12d" x="85.09899" y="189.539221" style="stroke: #000000; stroke-width: 0.4"/>
      </g>
     </g>
    </g>
    <g id="ytick_18">
     <g id="line2d_37">
      <g>
       <use xlink:href="#mfccd69c12d" x="85.09899" y="184.886546" style="stroke: #000000; stroke-width: 0.4"/>
      </g>
     </g>
    </g>
    <g id="ytick_19">
     <g id="line2d_38">
      <g>
       <use xlink:href="#mfccd69c12d" x="85.09899" y="180.782595" style="stroke: #000000; stroke-width: 0.4"/>
      </g>
     </g>
    </g>
    <g id="ytick_20">
     <g id="line2d_39">
      <g>
       <use xlink:href="#mfccd69c12d" x="85.09899" y="152.959948" style="stroke: #000000; stroke-width: 0.4"/>
      </g>
     </g>
    </g>
    <g id="ytick_21">
     <g id="line2d_40">
      <g>
       <use xlink:href="#mfccd69c12d" x="85.09899" y="138.832203" style="stroke: #000000; stroke-width: 0.4"/>
      </g>
     </g>
    </g>
    <g id="ytick_22">
     <g id="line2d_41">
      <g>
       <use xlink:href="#mfccd69c12d" x="85.09899" y="128.808409" style="stroke: #000000; stroke-width: 0.4"/>
      </g>
     </g>
    </g>
    <g id="ytick_23">
     <g id="line2d_42">
      <g>
       <use xlink:href="#mfccd69c12d" x="85.09899" y="121.03335" style="stroke: #000000; stroke-width: 0.4"/>
      </g>
     </g>
    </g>
    <g id="ytick_24">
     <g id="line2d_43">
      <g>
       <use xlink:href="#mfccd69c12d" x="85.09899" y="114.680664" style="stroke: #000000; stroke-width: 0.4"/>
      </g>
     </g>
    </g>
    <g id="ytick_25">
     <g id="line2d_44">
      <g>
       <use xlink:href="#mfccd69c12d" x="85.09899" y="109.309545" style="stroke: #000000; stroke-width: 0.4"/>
      </g>
     </g>
    </g>
    <g id="ytick_26">
     <g id="line2d_45">
      <g>
       <use xlink:href="#mfccd69c12d" x="85.09899" y="104.65687" style="stroke: #000000; stroke-width: 0.4"/>
      </g>
     </g>
    </g>
    <g id="ytick_27">
     <g id="line2d_46">
      <g>
       <use xlink:href="#mfccd69c12d" x="85.09899" y="100.552919" style="stroke: #000000; stroke-width: 0.4"/>
      </g>
     </g>
    </g>
    <g id="ytick_28">
     <g id="line2d_47">
      <g>
       <use xlink:href="#mfccd69c12d" x="85.09899" y="72.730272" style="stroke: #000000; stroke-width: 0.4"/>
      </g>
     </g>
    </g>
    <g id="ytick_29">
     <g id="line2d_48">
      <g>
       <use xlink:href="#mfccd69c12d" x="85.09899" y="58.602527" style="stroke: #000000; stroke-width: 0.4"/>
      </g>
     </g>
    </g>
    <g id="ytick_30">
     <g id="line2d_49">
      <g>
       <use xlink:href="#mfccd69c12d" x="85.09899" y="48.578733" style="stroke: #000000; stroke-width: 0.4"/>
      </g>
     </g>
    </g>
    <g id="ytick_31">
     <g id="line2d_50">
      <g>
       <use xlink:href="#mfccd69c12d" x="85.09899" y="40.803674" style="stroke: #000000; stroke-width: 0.4"/>
      </g>
     </g>
    </g>
    <g id="ytick_32">
     <g id="line2d_51">
      <g>
       <use xlink:href="#mfccd69c12d" x="85.09899" y="34.450988" style="stroke: #000000; stroke-width: 0.4"/>
      </g>
     </g>
    </g>
    <g id="ytick_33">
     <g id="line2d_52">
      <g>
       <use xlink:href="#mfccd69c12d" x="85.09899" y="29.079869" style="stroke: #000000; stroke-width: 0.4"/>
      </g>
     </g>
    </g>
    <g id="ytick_34">
     <g id="line2d_53">
      <g>
       <use xlink:href="#mfccd69c12d" x="85.09899" y="24.427194" style="stroke: #000000; stroke-width: 0.4"/>
      </g>
     </g>
    </g>
    <g id="ytick_35">
     <g id="line2d_54">
      <g>
       <use xlink:href="#mfccd69c12d" x="85.09899" y="20.323243" style="stroke: #000000; stroke-width: 0.4"/>
      </g>
     </g>
    </g>
    <g id="text_8">
     <!-- $s_{n}$ -->
     <g transform="translate(24.275865 167.829063)rotate(-90)scale(0.28 -0.28)">
      <defs>
       <path id="DejaVuSans-Oblique-73" d="M 3200 3397 
L 3091 2853 
Q 2863 2978 2609 3040 
Q 2356 3103 2088 3103 
Q 1634 3103 1373 2948 
Q 1113 2794 1113 2528 
Q 1113 2219 1719 2053 
Q 1766 2041 1788 2034 
L 1972 1978 
Q 2547 1819 2739 1644 
Q 2931 1469 2931 1166 
Q 2931 609 2489 259 
Q 2047 -91 1331 -91 
Q 1053 -91 747 -37 
Q 441 16 72 128 
L 184 722 
Q 500 559 806 475 
Q 1113 391 1394 391 
Q 1816 391 2080 572 
Q 2344 753 2344 1031 
Q 2344 1331 1650 1516 
L 1591 1531 
L 1394 1581 
Q 956 1697 753 1886 
Q 550 2075 550 2369 
Q 550 2928 970 3256 
Q 1391 3584 2113 3584 
Q 2397 3584 2667 3537 
Q 2938 3491 3200 3397 
z
" transform="scale(0.015625)"/>
      </defs>
      <use xlink:href="#DejaVuSans-Oblique-73"/>
      <use xlink:href="#DejaVuSans-Oblique-6e" transform="translate(52.099609 -16.40625)scale(0.7)"/>
     </g>
    </g>
   </g>
   <g id="line2d_55">
    <path d="M 106.850843 108.734985 
L 175.86293 135.334598 
L 216.232413 151.73192 
L 244.875017 159.317671 
L 267.091946 168.373744 
L 285.244499 174.958564 
L 300.592265 178.732874 
L 313.887103 184.441883 
L 325.613982 190.247222 
L 336.104033 193.82457 
L 345.593438 196.622083 
L 354.256586 199.948968 
L 362.22591 203.874314 
L 369.604351 207.55248 
L 376.473516 208.659916 
L 382.89919 211.776637 
L 388.935183 213.165238 
L 394.626069 217.109608 
L 400.009185 218.24863 
L 405.11612 220.292146 
L 409.973834 221.660825 
L 414.605525 226.059652 
L 419.031293 228.935494 
L 423.268673 230.148073 
L 427.333049 231.877633 
L 431.237997 233.374151 
L 434.995552 235.734787 
L 438.616438 236.81189 
L 442.110249 237.940912 
L 445.485602 238.707826 
L 448.750269 240.379551 
L 451.911277 242.708771 
L 454.975008 243.926482 
L 457.94727 246.751675 
L 460.833368 248.625209 
L 463.638156 250.284783 
L 466.366091 250.749238 
L 469.021272 251.368515 
L 471.607479 252.309889 
L 474.128206 253.884849 
L 476.586687 254.744067 
L 478.985921 256.454058 
L 481.328697 256.935338 
L 483.617611 258.729843 
L 485.855085 259.236821 
L 488.04338 260.39428 
L 490.184611 262.228878 
L 492.28076 262.87462 
L 494.333686 264.152121 
L 496.345136 265.348763 
L 498.316753 266.532167 
L 500.250083 267.740123 
L 502.146586 268.342763 
L 504.007639 269.650018 
L 505.834541 270.562075 
L 507.628525 270.606349 
L 509.390755 272.579686 
L 511.122336 273.240531 
L 512.824315 273.923876 
L 514.497689 274.047035 
L 516.143403 275.215027 
L 517.762355 276.561831 
L 519.355404 276.869875 
L 520.923363 278.09316 
L 522.467013 279.565427 
L 523.987094 281.233536 
L 525.484316 281.588199 
L 526.959357 281.937894 
L 528.412863 282.728995 
L 529.845454 283.034559 
L 531.257725 283.141811 
L 532.650242 285.044318 
L 534.023552 287.034888 
L 535.378177 287.201378 
L 536.714619 287.71589 
L 538.033359 288.477703 
L 539.334859 289.081175 
L 540.619566 290.183096 
L 541.887907 290.946174 
" clip-path="url(#p32b0d61b5d)" style="fill: none; stroke: #f8a953; stroke-width: 4; stroke-linecap: square"/>
   </g>
   <g id="line2d_56">
    <path d="M 106.850843 16.711951 
L 175.86293 38.083042 
L 216.232413 42.009504 
L 244.875017 50.40251 
L 267.091946 54.127507 
L 285.244499 61.245219 
L 300.592265 62.242066 
L 313.887103 71.668126 
L 325.613982 78.662685 
L 336.104033 83.805769 
L 345.593438 84.711993 
L 354.256586 85.178297 
L 362.22591 87.178858 
L 369.604351 89.351754 
L 376.473516 93.483519 
L 382.89919 94.59241 
L 388.935183 98.936264 
L 394.626069 99.993843 
L 400.009185 100.70084 
L 405.11612 104.806643 
L 409.973834 106.054222 
L 414.605525 110.03319 
L 419.031293 110.408737 
L 423.268673 112.335831 
L 427.333049 113.32798 
L 431.237997 114.288165 
L 434.995552 115.492215 
L 438.616438 116.805042 
L 442.110249 117.986261 
L 445.485602 122.119483 
L 448.750269 122.541285 
L 451.911277 125.708736 
L 454.975008 126.919226 
L 457.94727 127.848382 
L 460.833368 128.875583 
L 463.638156 131.96097 
L 466.366091 133.536558 
L 469.021272 134.050025 
L 471.607479 134.47467 
L 474.128206 135.351246 
L 476.586687 136.643327 
L 478.985921 137.591254 
L 481.328697 138.704803 
L 483.617611 139.68231 
L 485.855085 142.432389 
L 488.04338 143.336473 
L 490.184611 143.506939 
L 492.28076 144.476664 
L 494.333686 145.645973 
L 496.345136 145.765644 
L 498.316753 146.445358 
L 500.250083 146.855308 
L 502.146586 147.860865 
L 504.007639 149.172503 
L 505.834541 149.723329 
L 507.628525 150.303522 
L 509.390755 151.319419 
L 511.122336 151.901877 
L 512.824315 152.148622 
L 514.497689 152.722619 
L 516.143403 153.779042 
L 517.762355 154.55552 
L 519.355404 155.370541 
L 520.923363 156.34816 
L 522.467013 156.836774 
L 523.987094 157.144113 
L 525.484316 158.170663 
L 526.959357 158.651709 
L 528.412863 158.904724 
L 529.845454 159.535651 
L 531.257725 159.777159 
L 532.650242 161.304044 
L 534.023552 161.937019 
L 535.378177 162.247597 
L 536.714619 162.623272 
L 538.033359 163.223045 
L 539.334859 163.872331 
L 540.619566 165.006814 
L 541.887907 165.318693 
" clip-path="url(#p32b0d61b5d)" style="fill: none; stroke: #8ca3f1; stroke-width: 4; stroke-linecap: square"/>
   </g>
   <g id="line2d_57">
    <path d="M 106.850843 108.734985 
L 175.86293 132.886524 
L 216.232413 147.014268 
L 244.875017 157.038063 
L 267.091946 164.813122 
L 285.244499 171.165807 
L 300.592265 176.536927 
L 313.887103 181.189602 
L 325.613982 185.293552 
L 336.104033 188.964661 
L 345.593438 192.285582 
L 354.256586 195.317346 
L 362.22591 198.106299 
L 369.604351 200.688466 
L 376.473516 203.092405 
L 382.89919 205.341141 
L 388.935183 207.453503 
L 394.626069 209.445091 
L 400.009185 211.328972 
L 405.11612 213.1162 
L 409.973834 214.81621 
L 414.605525 216.437121 
L 419.031293 217.985968 
L 423.268673 219.468885 
L 427.333049 220.891259 
L 431.237997 222.257838 
L 434.995552 223.572836 
L 438.616438 224.840005 
L 442.110249 226.062702 
L 445.485602 227.243944 
L 448.750269 228.38645 
L 451.911277 229.49268 
L 454.975008 230.564866 
L 457.94727 231.605042 
L 460.833368 232.615063 
L 463.638156 233.59663 
L 466.366091 234.551301 
L 469.021272 235.480511 
L 471.607479 236.385582 
L 474.128206 237.267739 
L 476.586687 238.128111 
L 478.985921 238.967749 
L 481.328697 239.78763 
L 483.617611 240.58866 
L 485.855085 241.371689 
L 488.04338 242.137507 
L 490.184611 242.886854 
L 492.28076 243.620424 
L 494.333686 244.338868 
L 496.345136 245.042798 
L 498.316753 245.732787 
L 500.250083 246.409377 
L 502.146586 247.073079 
L 504.007639 247.724375 
L 505.834541 248.363719 
L 507.628525 248.991544 
L 509.390755 249.608255 
L 511.122336 250.214241 
L 512.824315 250.809868 
L 514.497689 251.395483 
L 516.143403 251.971419 
L 517.762355 252.537989 
L 519.355404 253.095494 
L 520.923363 253.644219 
L 522.467013 254.184436 
L 523.987094 254.716405 
L 525.484316 255.240374 
L 526.959357 255.756581 
L 528.412863 256.265251 
L 529.845454 256.766603 
L 531.257725 257.260842 
L 532.650242 257.748169 
L 534.023552 258.228774 
L 535.378177 258.70284 
L 536.714619 259.170542 
L 538.033359 259.63205 
L 539.334859 260.087524 
L 540.619566 260.537122 
L 541.887907 260.980991 
" clip-path="url(#p32b0d61b5d)" style="fill: none; stroke-dasharray: 7.4,3.2; stroke-dashoffset: 0; stroke: #888888; stroke-width: 2"/>
   </g>
   <g id="line2d_58">
    <path d="M 106.850843 16.711951 
L 175.86293 40.86349 
L 216.232413 54.991235 
L 244.875017 65.015029 
L 267.091946 72.790088 
L 285.244499 79.142774 
L 300.592265 84.513893 
L 313.887103 89.166568 
L 325.613982 93.270518 
L 336.104033 96.941627 
L 345.593438 100.262549 
L 354.256586 103.294313 
L 362.22591 106.083265 
L 369.604351 108.665432 
L 376.473516 111.069372 
L 382.89919 113.318107 
L 388.935183 115.430469 
L 394.626069 117.422058 
L 400.009185 119.305938 
L 405.11612 121.093166 
L 409.973834 122.793177 
L 414.605525 124.414088 
L 419.031293 125.962934 
L 423.268673 127.445852 
L 427.333049 128.868225 
L 431.237997 130.234804 
L 434.995552 131.549802 
L 438.616438 132.816971 
L 442.110249 134.039669 
L 445.485602 135.220911 
L 448.750269 136.363417 
L 451.911277 137.469646 
L 454.975008 138.541833 
L 457.94727 139.582008 
L 460.833368 140.59203 
L 463.638156 141.573597 
L 466.366091 142.528267 
L 469.021272 143.457477 
L 471.607479 144.362549 
L 474.128206 145.244705 
L 476.586687 146.105077 
L 478.985921 146.944716 
L 481.328697 147.764596 
L 483.617611 148.565627 
L 485.855085 149.348655 
L 488.04338 150.114473 
L 490.184611 150.863821 
L 492.28076 151.597391 
L 494.333686 152.315835 
L 496.345136 153.019764 
L 498.316753 153.709753 
L 500.250083 154.386343 
L 502.146586 155.050045 
L 504.007639 155.701341 
L 505.834541 156.340686 
L 507.628525 156.96851 
L 509.390755 157.585222 
L 511.122336 158.191208 
L 512.824315 158.786834 
L 514.497689 159.37245 
L 516.143403 159.948385 
L 517.762355 160.514956 
L 519.355404 161.07246 
L 520.923363 161.621185 
L 522.467013 162.161402 
L 523.987094 162.693372 
L 525.484316 163.217341 
L 526.959357 163.733547 
L 528.412863 164.242218 
L 529.845454 164.743569 
L 531.257725 165.237809 
L 532.650242 165.725136 
L 534.023552 166.20574 
L 535.378177 166.679806 
L 536.714619 167.147509 
L 538.033359 167.609016 
L 539.334859 168.064491 
L 540.619566 168.514088 
L 541.887907 168.957958 
" clip-path="url(#p32b0d61b5d)" style="fill: none; stroke-dasharray: 7.4,3.2; stroke-dashoffset: 0; stroke: #888888; stroke-width: 2"/>
   </g>
   <g id="patch_3">
    <path d="M 85.09899 304.657885 
L 85.09899 3.00024 
" style="fill: none; stroke: #000000; stroke-width: 0.8; stroke-linejoin: miter; stroke-linecap: square"/>
   </g>
   <g id="patch_4">
    <path d="M 85.09899 304.657885 
L 563.63976 304.657885 
" style="fill: none; stroke: #000000; stroke-width: 0.8; stroke-linejoin: miter; stroke-linecap: square"/>
   </g>
  </g>
 </g>
 <defs>
  <clipPath id="p32b0d61b5d">
   <rect x="85.09899" y="3.00024" width="478.54077" height="301.657645"/>
  </clipPath>
 </defs>
</svg>
