<?xml version="1.0" encoding="utf-8" standalone="no"?>
<!DOCTYPE svg PUBLIC "-//W3C//DTD SVG 1.1//EN"
  "http://www.w3.org/Graphics/SVG/1.1/DTD/svg11.dtd">
<svg xmlns:xlink="http://www.w3.org/1999/xlink" width="566.64pt" height="367.92pt" viewBox="0 0 566.64 367.92" xmlns="http://www.w3.org/2000/svg" version="1.1">
 <metadata>
  <rdf:RDF xmlns:dc="http://purl.org/dc/elements/1.1/" xmlns:cc="http://creativecommons.org/ns#" xmlns:rdf="http://www.w3.org/1999/02/22-rdf-syntax-ns#">
   <cc:Work>
    <dc:type rdf:resource="http://purl.org/dc/dcmitype/StillImage"/>
    <dc:date>2022-04-05T17:55:06.335612</dc:date>
    <dc:format>image/svg+xml</dc:format>
    <dc:creator>
     <cc:Agent>
      <dc:title>Matplotlib v3.5.1, https://matplotlib.org/</dc:title>
     </cc:Agent>
    </dc:creator>
   </cc:Work>
  </rdf:RDF>
 </metadata>
 <defs>
  <style type="text/css">*{stroke-linejoin: round; stroke-linecap: butt}</style>
 </defs>
 <g id="figure_1">
  <g id="patch_1">
   <path d="M 0 367.92 
L 566.64 367.92 
L 566.64 0 
L 0 0 
L 0 367.92 
z
" style="fill: none"/>
  </g>
  <g id="axes_1">
   <g id="patch_2">
    <path d="M 88.092115 318.20726 
L 563.63976 318.20726 
L 563.63976 3.00024 
L 88.092115 3.00024 
z
" style="fill: #ffffff"/>
   </g>
   <g id="matplotlib.axis_1">
    <g id="xtick_1">
     <g id="line2d_1">
      <defs>
       <path id="m435945e684" d="M 0 0 
L 0 3.5 
" style="stroke: #000000; stroke-width: 0.8"/>
      </defs>
      <g>
       <use xlink:href="#m435945e684" x="109.707917" y="318.20726" style="stroke: #000000; stroke-width: 0.8"/>
      </g>
     </g>
     <g id="text_1">
      <!-- $\mathdefault{10^{0}}$ -->
      <g transform="translate(93.867917 336.884448)scale(0.18 -0.18)">
       <defs>
        <path id="DejaVuSans-31" d="M 794 531 
L 1825 531 
L 1825 4091 
L 703 3866 
L 703 4441 
L 1819 4666 
L 2450 4666 
L 2450 531 
L 3481 531 
L 3481 0 
L 794 0 
L 794 531 
z
" transform="scale(0.015625)"/>
        <path id="DejaVuSans-30" d="M 2034 4250 
Q 1547 4250 1301 3770 
Q 1056 3291 1056 2328 
Q 1056 1369 1301 889 
Q 1547 409 2034 409 
Q 2525 409 2770 889 
Q 3016 1369 3016 2328 
Q 3016 3291 2770 3770 
Q 2525 4250 2034 4250 
z
M 2034 4750 
Q 2819 4750 3233 4129 
Q 3647 3509 3647 2328 
Q 3647 1150 3233 529 
Q 2819 -91 2034 -91 
Q 1250 -91 836 529 
Q 422 1150 422 2328 
Q 422 3509 836 4129 
Q 1250 4750 2034 4750 
z
" transform="scale(0.015625)"/>
       </defs>
       <use xlink:href="#DejaVuSans-31" transform="translate(0 0.765625)"/>
       <use xlink:href="#DejaVuSans-30" transform="translate(63.623047 0.765625)"/>
       <use xlink:href="#DejaVuSans-30" transform="translate(128.203125 39.046875)scale(0.7)"/>
      </g>
     </g>
    </g>
    <g id="xtick_2">
     <g id="line2d_2">
      <g>
       <use xlink:href="#m435945e684" x="253.834139" y="318.20726" style="stroke: #000000; stroke-width: 0.8"/>
      </g>
     </g>
     <g id="text_2">
      <!-- $\mathdefault{10^{1}}$ -->
      <g transform="translate(237.994139 336.884448)scale(0.18 -0.18)">
       <use xlink:href="#DejaVuSans-31" transform="translate(0 0.684375)"/>
       <use xlink:href="#DejaVuSans-30" transform="translate(63.623047 0.684375)"/>
       <use xlink:href="#DejaVuSans-31" transform="translate(128.203125 38.965625)scale(0.7)"/>
      </g>
     </g>
    </g>
    <g id="xtick_3">
     <g id="line2d_3">
      <g>
       <use xlink:href="#m435945e684" x="397.960361" y="318.20726" style="stroke: #000000; stroke-width: 0.8"/>
      </g>
     </g>
     <g id="text_3">
      <!-- $\mathdefault{10^{2}}$ -->
      <g transform="translate(382.120361 336.884448)scale(0.18 -0.18)">
       <defs>
        <path id="DejaVuSans-32" d="M 1228 531 
L 3431 531 
L 3431 0 
L 469 0 
L 469 531 
Q 828 903 1448 1529 
Q 2069 2156 2228 2338 
Q 2531 2678 2651 2914 
Q 2772 3150 2772 3378 
Q 2772 3750 2511 3984 
Q 2250 4219 1831 4219 
Q 1534 4219 1204 4116 
Q 875 4013 500 3803 
L 500 4441 
Q 881 4594 1212 4672 
Q 1544 4750 1819 4750 
Q 2544 4750 2975 4387 
Q 3406 4025 3406 3419 
Q 3406 3131 3298 2873 
Q 3191 2616 2906 2266 
Q 2828 2175 2409 1742 
Q 1991 1309 1228 531 
z
" transform="scale(0.015625)"/>
       </defs>
       <use xlink:href="#DejaVuSans-31" transform="translate(0 0.765625)"/>
       <use xlink:href="#DejaVuSans-30" transform="translate(63.623047 0.765625)"/>
       <use xlink:href="#DejaVuSans-32" transform="translate(128.203125 39.046875)scale(0.7)"/>
      </g>
     </g>
    </g>
    <g id="xtick_4">
     <g id="line2d_4">
      <g>
       <use xlink:href="#m435945e684" x="542.086582" y="318.20726" style="stroke: #000000; stroke-width: 0.8"/>
      </g>
     </g>
     <g id="text_4">
      <!-- $\mathdefault{10^{3}}$ -->
      <g transform="translate(526.246582 336.884448)scale(0.18 -0.18)">
       <defs>
        <path id="DejaVuSans-33" d="M 2597 2516 
Q 3050 2419 3304 2112 
Q 3559 1806 3559 1356 
Q 3559 666 3084 287 
Q 2609 -91 1734 -91 
Q 1441 -91 1130 -33 
Q 819 25 488 141 
L 488 750 
Q 750 597 1062 519 
Q 1375 441 1716 441 
Q 2309 441 2620 675 
Q 2931 909 2931 1356 
Q 2931 1769 2642 2001 
Q 2353 2234 1838 2234 
L 1294 2234 
L 1294 2753 
L 1863 2753 
Q 2328 2753 2575 2939 
Q 2822 3125 2822 3475 
Q 2822 3834 2567 4026 
Q 2313 4219 1838 4219 
Q 1578 4219 1281 4162 
Q 984 4106 628 3988 
L 628 4550 
Q 988 4650 1302 4700 
Q 1616 4750 1894 4750 
Q 2613 4750 3031 4423 
Q 3450 4097 3450 3541 
Q 3450 3153 3228 2886 
Q 3006 2619 2597 2516 
z
" transform="scale(0.015625)"/>
       </defs>
       <use xlink:href="#DejaVuSans-31" transform="translate(0 0.765625)"/>
       <use xlink:href="#DejaVuSans-30" transform="translate(63.623047 0.765625)"/>
       <use xlink:href="#DejaVuSans-33" transform="translate(128.203125 39.046875)scale(0.7)"/>
      </g>
     </g>
    </g>
    <g id="xtick_5">
     <g id="line2d_5">
      <defs>
       <path id="md34b4cc365" d="M 0 0 
L 0 2 
" style="stroke: #000000; stroke-width: 0.4"/>
      </defs>
      <g>
       <use xlink:href="#md34b4cc365" x="95.740643" y="318.20726" style="stroke: #000000; stroke-width: 0.4"/>
      </g>
     </g>
    </g>
    <g id="xtick_6">
     <g id="line2d_6">
      <g>
       <use xlink:href="#md34b4cc365" x="103.113063" y="318.20726" style="stroke: #000000; stroke-width: 0.4"/>
      </g>
     </g>
    </g>
    <g id="xtick_7">
     <g id="line2d_7">
      <g>
       <use xlink:href="#md34b4cc365" x="153.094233" y="318.20726" style="stroke: #000000; stroke-width: 0.4"/>
      </g>
     </g>
    </g>
    <g id="xtick_8">
     <g id="line2d_8">
      <g>
       <use xlink:href="#md34b4cc365" x="178.473601" y="318.20726" style="stroke: #000000; stroke-width: 0.4"/>
      </g>
     </g>
    </g>
    <g id="xtick_9">
     <g id="line2d_9">
      <g>
       <use xlink:href="#md34b4cc365" x="196.480549" y="318.20726" style="stroke: #000000; stroke-width: 0.4"/>
      </g>
     </g>
    </g>
    <g id="xtick_10">
     <g id="line2d_10">
      <g>
       <use xlink:href="#md34b4cc365" x="210.447823" y="318.20726" style="stroke: #000000; stroke-width: 0.4"/>
      </g>
     </g>
    </g>
    <g id="xtick_11">
     <g id="line2d_11">
      <g>
       <use xlink:href="#md34b4cc365" x="221.859917" y="318.20726" style="stroke: #000000; stroke-width: 0.4"/>
      </g>
     </g>
    </g>
    <g id="xtick_12">
     <g id="line2d_12">
      <g>
       <use xlink:href="#md34b4cc365" x="231.508705" y="318.20726" style="stroke: #000000; stroke-width: 0.4"/>
      </g>
     </g>
    </g>
    <g id="xtick_13">
     <g id="line2d_13">
      <g>
       <use xlink:href="#md34b4cc365" x="239.866865" y="318.20726" style="stroke: #000000; stroke-width: 0.4"/>
      </g>
     </g>
    </g>
    <g id="xtick_14">
     <g id="line2d_14">
      <g>
       <use xlink:href="#md34b4cc365" x="247.239285" y="318.20726" style="stroke: #000000; stroke-width: 0.4"/>
      </g>
     </g>
    </g>
    <g id="xtick_15">
     <g id="line2d_15">
      <g>
       <use xlink:href="#md34b4cc365" x="297.220455" y="318.20726" style="stroke: #000000; stroke-width: 0.4"/>
      </g>
     </g>
    </g>
    <g id="xtick_16">
     <g id="line2d_16">
      <g>
       <use xlink:href="#md34b4cc365" x="322.599823" y="318.20726" style="stroke: #000000; stroke-width: 0.4"/>
      </g>
     </g>
    </g>
    <g id="xtick_17">
     <g id="line2d_17">
      <g>
       <use xlink:href="#md34b4cc365" x="340.606771" y="318.20726" style="stroke: #000000; stroke-width: 0.4"/>
      </g>
     </g>
    </g>
    <g id="xtick_18">
     <g id="line2d_18">
      <g>
       <use xlink:href="#md34b4cc365" x="354.574045" y="318.20726" style="stroke: #000000; stroke-width: 0.4"/>
      </g>
     </g>
    </g>
    <g id="xtick_19">
     <g id="line2d_19">
      <g>
       <use xlink:href="#md34b4cc365" x="365.986139" y="318.20726" style="stroke: #000000; stroke-width: 0.4"/>
      </g>
     </g>
    </g>
    <g id="xtick_20">
     <g id="line2d_20">
      <g>
       <use xlink:href="#md34b4cc365" x="375.634926" y="318.20726" style="stroke: #000000; stroke-width: 0.4"/>
      </g>
     </g>
    </g>
    <g id="xtick_21">
     <g id="line2d_21">
      <g>
       <use xlink:href="#md34b4cc365" x="383.993087" y="318.20726" style="stroke: #000000; stroke-width: 0.4"/>
      </g>
     </g>
    </g>
    <g id="xtick_22">
     <g id="line2d_22">
      <g>
       <use xlink:href="#md34b4cc365" x="391.365506" y="318.20726" style="stroke: #000000; stroke-width: 0.4"/>
      </g>
     </g>
    </g>
    <g id="xtick_23">
     <g id="line2d_23">
      <g>
       <use xlink:href="#md34b4cc365" x="441.346677" y="318.20726" style="stroke: #000000; stroke-width: 0.4"/>
      </g>
     </g>
    </g>
    <g id="xtick_24">
     <g id="line2d_24">
      <g>
       <use xlink:href="#md34b4cc365" x="466.726044" y="318.20726" style="stroke: #000000; stroke-width: 0.4"/>
      </g>
     </g>
    </g>
    <g id="xtick_25">
     <g id="line2d_25">
      <g>
       <use xlink:href="#md34b4cc365" x="484.732993" y="318.20726" style="stroke: #000000; stroke-width: 0.4"/>
      </g>
     </g>
    </g>
    <g id="xtick_26">
     <g id="line2d_26">
      <g>
       <use xlink:href="#md34b4cc365" x="498.700267" y="318.20726" style="stroke: #000000; stroke-width: 0.4"/>
      </g>
     </g>
    </g>
    <g id="xtick_27">
     <g id="line2d_27">
      <g>
       <use xlink:href="#md34b4cc365" x="510.11236" y="318.20726" style="stroke: #000000; stroke-width: 0.4"/>
      </g>
     </g>
    </g>
    <g id="xtick_28">
     <g id="line2d_28">
      <g>
       <use xlink:href="#md34b4cc365" x="519.761148" y="318.20726" style="stroke: #000000; stroke-width: 0.4"/>
      </g>
     </g>
    </g>
    <g id="xtick_29">
     <g id="line2d_29">
      <g>
       <use xlink:href="#md34b4cc365" x="528.119308" y="318.20726" style="stroke: #000000; stroke-width: 0.4"/>
      </g>
     </g>
    </g>
    <g id="xtick_30">
     <g id="line2d_30">
      <g>
       <use xlink:href="#md34b4cc365" x="535.491728" y="318.20726" style="stroke: #000000; stroke-width: 0.4"/>
      </g>
     </g>
    </g>
    <g id="text_5">
     <!-- $n$ -->
     <g transform="translate(318.825937 360.344448)scale(0.22 -0.22)">
      <defs>
       <path id="DejaVuSans-Oblique-6e" d="M 3566 2113 
L 3156 0 
L 2578 0 
L 2988 2091 
Q 3016 2238 3031 2350 
Q 3047 2463 3047 2528 
Q 3047 2791 2881 2937 
Q 2716 3084 2419 3084 
Q 1956 3084 1622 2776 
Q 1288 2469 1184 1941 
L 800 0 
L 225 0 
L 903 3500 
L 1478 3500 
L 1363 2950 
Q 1603 3253 1940 3418 
Q 2278 3584 2650 3584 
Q 3113 3584 3367 3334 
Q 3622 3084 3622 2631 
Q 3622 2519 3608 2391 
Q 3594 2263 3566 2113 
z
" transform="scale(0.015625)"/>
      </defs>
      <use xlink:href="#DejaVuSans-Oblique-6e"/>
     </g>
    </g>
   </g>
   <g id="matplotlib.axis_2">
    <g id="ytick_1">
     <g id="line2d_31">
      <defs>
       <path id="m3128b23a62" d="M 0 0 
L -3.5 0 
" style="stroke: #000000; stroke-width: 0.8"/>
      </defs>
      <g>
       <use xlink:href="#m3128b23a62" x="88.092115" y="275.452237" style="stroke: #000000; stroke-width: 0.8"/>
      </g>
     </g>
     <g id="text_6">
      <!-- $\mathdefault{10^{-10}}$ -->
      <g transform="translate(27.292115 283.050674)scale(0.2 -0.2)">
       <defs>
        <path id="DejaVuSans-2212" d="M 678 2272 
L 4684 2272 
L 4684 1741 
L 678 1741 
L 678 2272 
z
" transform="scale(0.015625)"/>
       </defs>
       <use xlink:href="#DejaVuSans-31" transform="translate(0 0.765625)"/>
       <use xlink:href="#DejaVuSans-30" transform="translate(63.623047 0.765625)"/>
       <use xlink:href="#DejaVuSans-2212" transform="translate(128.203125 39.046875)scale(0.7)"/>
       <use xlink:href="#DejaVuSans-31" transform="translate(186.855469 39.046875)scale(0.7)"/>
       <use xlink:href="#DejaVuSans-30" transform="translate(231.391602 39.046875)scale(0.7)"/>
      </g>
     </g>
    </g>
    <g id="ytick_2">
     <g id="line2d_32">
      <g>
       <use xlink:href="#m3128b23a62" x="88.092115" y="218.086506" style="stroke: #000000; stroke-width: 0.8"/>
      </g>
     </g>
     <g id="text_7">
      <!-- $\mathdefault{10^{-8}}$ -->
      <g transform="translate(36.092115 225.684943)scale(0.2 -0.2)">
       <defs>
        <path id="DejaVuSans-38" d="M 2034 2216 
Q 1584 2216 1326 1975 
Q 1069 1734 1069 1313 
Q 1069 891 1326 650 
Q 1584 409 2034 409 
Q 2484 409 2743 651 
Q 3003 894 3003 1313 
Q 3003 1734 2745 1975 
Q 2488 2216 2034 2216 
z
M 1403 2484 
Q 997 2584 770 2862 
Q 544 3141 544 3541 
Q 544 4100 942 4425 
Q 1341 4750 2034 4750 
Q 2731 4750 3128 4425 
Q 3525 4100 3525 3541 
Q 3525 3141 3298 2862 
Q 3072 2584 2669 2484 
Q 3125 2378 3379 2068 
Q 3634 1759 3634 1313 
Q 3634 634 3220 271 
Q 2806 -91 2034 -91 
Q 1263 -91 848 271 
Q 434 634 434 1313 
Q 434 1759 690 2068 
Q 947 2378 1403 2484 
z
M 1172 3481 
Q 1172 3119 1398 2916 
Q 1625 2713 2034 2713 
Q 2441 2713 2670 2916 
Q 2900 3119 2900 3481 
Q 2900 3844 2670 4047 
Q 2441 4250 2034 4250 
Q 1625 4250 1398 4047 
Q 1172 3844 1172 3481 
z
" transform="scale(0.015625)"/>
       </defs>
       <use xlink:href="#DejaVuSans-31" transform="translate(0 0.765625)"/>
       <use xlink:href="#DejaVuSans-30" transform="translate(63.623047 0.765625)"/>
       <use xlink:href="#DejaVuSans-2212" transform="translate(128.203125 39.046875)scale(0.7)"/>
       <use xlink:href="#DejaVuSans-38" transform="translate(186.855469 39.046875)scale(0.7)"/>
      </g>
     </g>
    </g>
    <g id="ytick_3">
     <g id="line2d_33">
      <g>
       <use xlink:href="#m3128b23a62" x="88.092115" y="160.720775" style="stroke: #000000; stroke-width: 0.8"/>
      </g>
     </g>
     <g id="text_8">
      <!-- $\mathdefault{10^{-6}}$ -->
      <g transform="translate(36.092115 168.319212)scale(0.2 -0.2)">
       <defs>
        <path id="DejaVuSans-36" d="M 2113 2584 
Q 1688 2584 1439 2293 
Q 1191 2003 1191 1497 
Q 1191 994 1439 701 
Q 1688 409 2113 409 
Q 2538 409 2786 701 
Q 3034 994 3034 1497 
Q 3034 2003 2786 2293 
Q 2538 2584 2113 2584 
z
M 3366 4563 
L 3366 3988 
Q 3128 4100 2886 4159 
Q 2644 4219 2406 4219 
Q 1781 4219 1451 3797 
Q 1122 3375 1075 2522 
Q 1259 2794 1537 2939 
Q 1816 3084 2150 3084 
Q 2853 3084 3261 2657 
Q 3669 2231 3669 1497 
Q 3669 778 3244 343 
Q 2819 -91 2113 -91 
Q 1303 -91 875 529 
Q 447 1150 447 2328 
Q 447 3434 972 4092 
Q 1497 4750 2381 4750 
Q 2619 4750 2861 4703 
Q 3103 4656 3366 4563 
z
" transform="scale(0.015625)"/>
       </defs>
       <use xlink:href="#DejaVuSans-31" transform="translate(0 0.765625)"/>
       <use xlink:href="#DejaVuSans-30" transform="translate(63.623047 0.765625)"/>
       <use xlink:href="#DejaVuSans-2212" transform="translate(128.203125 39.046875)scale(0.7)"/>
       <use xlink:href="#DejaVuSans-36" transform="translate(186.855469 39.046875)scale(0.7)"/>
      </g>
     </g>
    </g>
    <g id="ytick_4">
     <g id="line2d_34">
      <g>
       <use xlink:href="#m3128b23a62" x="88.092115" y="103.355044" style="stroke: #000000; stroke-width: 0.8"/>
      </g>
     </g>
     <g id="text_9">
      <!-- $\mathdefault{10^{-4}}$ -->
      <g transform="translate(36.092115 110.953481)scale(0.2 -0.2)">
       <defs>
        <path id="DejaVuSans-34" d="M 2419 4116 
L 825 1625 
L 2419 1625 
L 2419 4116 
z
M 2253 4666 
L 3047 4666 
L 3047 1625 
L 3713 1625 
L 3713 1100 
L 3047 1100 
L 3047 0 
L 2419 0 
L 2419 1100 
L 313 1100 
L 313 1709 
L 2253 4666 
z
" transform="scale(0.015625)"/>
       </defs>
       <use xlink:href="#DejaVuSans-31" transform="translate(0 0.684375)"/>
       <use xlink:href="#DejaVuSans-30" transform="translate(63.623047 0.684375)"/>
       <use xlink:href="#DejaVuSans-2212" transform="translate(128.203125 38.965625)scale(0.7)"/>
       <use xlink:href="#DejaVuSans-34" transform="translate(186.855469 38.965625)scale(0.7)"/>
      </g>
     </g>
    </g>
    <g id="ytick_5">
     <g id="line2d_35">
      <g>
       <use xlink:href="#m3128b23a62" x="88.092115" y="45.989312" style="stroke: #000000; stroke-width: 0.8"/>
      </g>
     </g>
     <g id="text_10">
      <!-- $\mathdefault{10^{-2}}$ -->
      <g transform="translate(36.092115 53.58775)scale(0.2 -0.2)">
       <use xlink:href="#DejaVuSans-31" transform="translate(0 0.765625)"/>
       <use xlink:href="#DejaVuSans-30" transform="translate(63.623047 0.765625)"/>
       <use xlink:href="#DejaVuSans-2212" transform="translate(128.203125 39.046875)scale(0.7)"/>
       <use xlink:href="#DejaVuSans-32" transform="translate(186.855469 39.046875)scale(0.7)"/>
      </g>
     </g>
    </g>
    <g id="text_11">
     <!-- $s_{n}$ -->
     <g transform="translate(19.716803 171.60375)rotate(-90)scale(0.22 -0.22)">
      <defs>
       <path id="DejaVuSans-Oblique-73" d="M 3200 3397 
L 3091 2853 
Q 2863 2978 2609 3040 
Q 2356 3103 2088 3103 
Q 1634 3103 1373 2948 
Q 1113 2794 1113 2528 
Q 1113 2219 1719 2053 
Q 1766 2041 1788 2034 
L 1972 1978 
Q 2547 1819 2739 1644 
Q 2931 1469 2931 1166 
Q 2931 609 2489 259 
Q 2047 -91 1331 -91 
Q 1053 -91 747 -37 
Q 441 16 72 128 
L 184 722 
Q 500 559 806 475 
Q 1113 391 1394 391 
Q 1816 391 2080 572 
Q 2344 753 2344 1031 
Q 2344 1331 1650 1516 
L 1591 1531 
L 1394 1581 
Q 956 1697 753 1886 
Q 550 2075 550 2369 
Q 550 2928 970 3256 
Q 1391 3584 2113 3584 
Q 2397 3584 2667 3537 
Q 2938 3491 3200 3397 
z
" transform="scale(0.015625)"/>
      </defs>
      <use xlink:href="#DejaVuSans-Oblique-73"/>
      <use xlink:href="#DejaVuSans-Oblique-6e" transform="translate(52.099609 -16.40625)scale(0.7)"/>
     </g>
    </g>
   </g>
   <g id="line2d_36">
    <path d="M 109.707917 50.226934 
L 153.094233 59.736546 
L 178.473601 65.598744 
L 196.480549 68.310721 
L 210.447823 71.548353 
L 221.859917 73.902488 
L 231.508705 75.251839 
L 239.866865 77.292864 
L 247.239285 79.368327 
L 253.834139 80.647263 
L 259.79991 81.6474 
L 265.246233 82.836793 
L 274.895021 85.55512 
L 279.213507 85.951039 
L 283.253181 87.065296 
L 287.047871 87.561734 
L 290.625601 88.971884 
L 294.009842 89.379094 
L 297.220455 90.109671 
L 300.274388 90.598987 
L 303.186226 92.171609 
L 305.968605 93.199749 
L 308.632549 93.633258 
L 313.64268 94.786611 
L 316.004968 95.630561 
L 322.599823 96.69345 
L 324.652243 97.291107 
L 326.639497 98.123825 
L 328.565594 98.559169 
L 330.434187 99.569202 
L 334.011916 100.832321 
L 337.396158 101.219766 
L 339.022048 101.556316 
L 340.606771 102.119379 
L 342.152361 102.426557 
L 343.660704 103.037895 
L 345.133554 103.209958 
L 346.572542 103.85151 
L 347.979191 104.032759 
L 349.354921 104.446562 
L 350.701064 105.102448 
L 352.018865 105.333307 
L 357.028996 107.07277 
L 358.221284 107.288219 
L 359.391284 107.755575 
L 360.539816 108.081644 
L 361.667652 108.097473 
L 362.775526 108.802959 
L 364.934127 109.28352 
L 365.986139 109.32755 
L 368.038559 110.226614 
L 369.040072 110.336742 
L 370.99627 111.300428 
L 371.95191 111.896792 
L 373.820503 112.148607 
L 374.734289 112.431433 
L 376.522788 112.579019 
L 378.261601 113.97083 
L 379.113223 114.030352 
L 380.782474 114.48665 
L 381.600698 114.702397 
L 383.993087 115.86015 
L 384.770652 115.914623 
L 385.538677 116.228682 
L 386.297392 116.356128 
L 387.04702 116.732595 
L 387.787777 116.971065 
L 388.51987 117.425909 
L 389.243499 117.601505 
L 390.666134 118.197265 
L 391.365506 118.352624 
L 392.057151 118.976306 
L 392.741237 119.139472 
L 393.417927 119.606083 
L 395.40518 120.565249 
L 396.695808 120.792492 
L 397.960361 121.45553 
L 398.583184 121.943956 
L 399.199871 122.245762 
L 399.810541 122.38498 
L 400.415312 122.723357 
L 402.195334 124.166883 
L 402.7776 124.47078 
L 403.3545 124.567605 
L 403.926132 124.985988 
L 404.49259 125.561413 
L 405.053968 125.934957 
L 405.610356 126.628417 
L 406.161842 126.836371 
L 406.708511 127.875761 
L 407.250447 128.422438 
L 407.787731 128.516225 
L 408.848659 130.510461 
L 409.372455 130.960583 
L 409.891903 131.248904 
L 410.918045 132.811481 
L 411.424875 133.091227 
L 411.927635 134.995489 
L 412.426388 135.29774 
L 412.921199 135.828411 
L 413.412129 136.167624 
L 413.899238 136.99749 
L 414.382586 138.276165 
L 415.338226 140.136071 
L 415.81063 140.44098 
L 416.279495 140.903931 
L 416.744874 141.668661 
L 417.206819 142.030556 
L 417.665379 142.955782 
L 418.120605 143.560004 
L 418.572544 144.444792 
L 419.021242 146.10971 
L 419.466748 146.38036 
L 419.909104 147.310195 
L 420.348357 147.382388 
L 420.784548 148.579766 
L 421.217721 150.135373 
L 422.075176 151.612696 
L 422.499538 152.71894 
L 422.921043 153.002184 
L 423.339729 153.754195 
L 424.16879 154.864245 
L 424.579239 155.93641 
L 424.987014 157.479996 
L 425.794679 158.219821 
L 426.194637 158.860043 
L 426.592056 159.723983 
L 426.986967 160.038014 
L 427.379403 160.915391 
L 427.769393 160.994204 
L 428.156968 162.78146 
L 428.924993 164.658175 
L 429.3055 165.24818 
L 429.683708 166.273358 
L 430.059644 166.422604 
L 430.433336 166.8332 
L 430.80481 167.944683 
L 431.174093 168.45352 
L 431.54121 169.352286 
L 431.906186 169.858563 
L 432.269046 170.059911 
L 432.629815 170.669095 
L 432.988516 172.365551 
L 433.345174 172.841368 
L 433.699811 173.063301 
L 434.052449 173.428617 
L 434.403113 174.276421 
L 434.751822 174.522644 
L 435.443467 175.813073 
L 435.786445 176.82089 
L 436.804243 177.948757 
L 437.139864 178.606575 
L 437.473696 178.87151 
L 438.464638 180.799633 
L 438.791496 180.980313 
L 439.440137 182.073638 
L 440.082124 182.806922 
L 440.400665 183.679867 
L 440.717594 183.79775 
L 441.032925 184.051733 
L 441.346677 184.729156 
L 441.658863 184.744998 
L 441.9695 185.161558 
L 442.278603 185.324365 
L 443.196857 187.02943 
L 443.499973 187.23912 
L 443.801627 188.077893 
L 444.993915 189.160907 
L 445.581649 190.078563 
L 446.163916 191.632319 
L 446.453031 191.941548 
L 446.740816 191.981128 
L 448.160225 193.896151 
L 448.996672 194.340099 
L 449.822089 195.654811 
L 450.094827 196.293997 
L 450.636763 196.795894 
L 450.905982 197.157011 
L 451.174047 197.310496 
L 451.44097 197.599363 
L 452.234975 199.051891 
L 452.75877 199.387617 
L 454.558289 201.759353 
L 454.811191 202.502818 
L 455.812704 203.308128 
L 456.060598 203.862435 
L 456.553461 204.205954 
L 457.527694 205.251742 
L 458.009183 205.989282 
L 458.248545 206.186593 
L 458.486996 206.652511 
L 458.961189 206.883292 
L 459.196946 207.560684 
L 459.431817 207.599428 
L 459.665811 207.988733 
L 459.898933 208.049508 
L 460.593135 208.691357 
L 460.822835 209.178621 
L 461.733298 209.947852 
L 461.958859 210.494446 
L 462.183611 210.639376 
L 462.630707 211.323611 
L 463.29542 211.812421 
L 463.734673 212.468042 
L 464.170864 212.777497 
L 464.387825 213.169575 
L 464.819505 213.49699 
L 465.461492 214.068381 
L 465.885854 214.423479 
L 466.726044 215.681469 
L 469.381294 218.240988 
L 469.580953 218.750164 
L 471.736176 220.835151 
L 471.928474 221.164865 
L 472.120184 221.209658 
L 472.501851 221.765747 
L 472.691816 221.840549 
L 473.070024 222.406474 
L 473.44596 222.743213 
L 473.819652 223.274793 
L 474.005665 223.318358 
L 474.191126 223.59584 
L 474.37604 223.64704 
L 474.560409 223.909993 
L 474.927526 224.127973 
L 475.11028 224.571068 
L 475.292502 224.681583 
L 476.374832 226.035166 
L 476.553415 226.096377 
L 477.086127 226.999221 
L 477.438765 227.127879 
L 477.964026 227.868517 
L 478.657587 228.32364 
L 479.001507 228.770114 
L 479.343547 229.151593 
L 479.683729 229.707361 
L 480.358595 230.250553 
L 480.52618 230.415829 
L 480.860012 230.880014 
L 481.192072 230.966662 
L 481.357444 231.50688 
L 481.52238 231.52249 
L 481.850954 231.963571 
L 482.340604 232.48679 
L 482.664922 232.664289 
L 483.148269 233.378125 
L 483.308559 233.392135 
L 484.576314 234.877922 
L 484.732993 234.96046 
L 485.20069 235.509781 
L 485.510558 235.54722 
L 485.8189 235.960532 
L 486.12573 236.72289 
L 486.583173 236.846335 
L 486.734914 236.992524 
L 486.886289 237.397456 
L 487.187943 237.5234 
L 487.637717 237.875069 
L 487.786926 238.075899 
L 488.084282 238.561949 
L 488.967965 239.488668 
L 489.114041 239.502264 
L 489.550232 240.269413 
L 489.839347 240.36235 
L 490.127132 240.614528 
L 490.413601 241.173046 
L 490.982634 241.676048 
L 491.265222 242.143364 
L 491.546541 242.331512 
L 491.966162 242.572126 
L 492.521316 243.266213 
L 492.659338 243.281848 
L 492.934474 243.750534 
L 493.208405 243.924093 
L 493.481143 244.023711 
L 494.023079 244.855931 
L 494.426474 245.067977 
L 494.827286 245.360723 
L 494.960321 245.96651 
L 495.621291 246.436922 
L 495.883736 246.853146 
L 496.145086 246.945597 
L 496.922652 247.839534 
L 497.179709 248.222238 
L 497.435714 248.398765 
L 497.563325 248.645765 
L 497.690677 248.647843 
L 497.944605 249.002149 
L 498.700267 249.97536 
L 499.074704 250.449273 
L 499.32309 250.568028 
L 499.570494 250.867792 
L 499.816925 250.981115 
L 500.062388 251.528908 
L 500.18476 251.586967 
L 500.428789 251.949287 
L 500.67187 252.046988 
L 500.91401 252.301522 
L 501.03473 252.385327 
L 501.395499 252.878937 
L 501.992198 253.498557 
L 502.110858 253.600206 
L 502.347505 253.912732 
L 502.465494 254.02013 
L 502.700808 254.418053 
L 503.168796 254.859054 
L 503.285249 254.880156 
L 503.633312 255.415308 
L 503.864284 255.654918 
L 504.323686 256.120455 
L 505.569927 257.526599 
L 505.793874 257.877567 
L 505.905548 257.882737 
L 506.1283 258.207055 
L 506.460949 258.385972 
L 506.681736 258.748437 
L 506.791839 258.806854 
L 507.011464 259.131675 
L 507.339464 259.514515 
L 507.882341 260.024914 
L 508.313277 260.626396 
L 509.903368 262.38014 
L 510.216596 262.64658 
L 510.320658 262.694818 
L 510.631809 263.229688 
L 511.861176 264.674712 
L 512.265657 265.125349 
L 512.36637 265.153378 
L 513.066861 266.094184 
L 513.364688 266.295655 
L 513.759599 266.897573 
L 513.857939 266.935249 
L 514.639144 268.130482 
L 514.9296 268.424219 
L 515.697625 269.241944 
L 515.888167 269.44767 
L 516.078132 269.767179 
L 517.112754 270.939103 
L 517.299043 271.176797 
L 517.577442 271.475224 
L 523.576875 278.849502 
L 523.828759 279.241611 
L 524.079634 279.487705 
L 524.826282 280.354774 
L 525.073199 280.7322 
L 525.319145 280.994854 
L 525.72692 281.458964 
L 525.970315 281.653651 
L 526.132055 281.838201 
L 527.014229 283.118916 
L 527.093814 283.131423 
L 527.25268 283.469995 
L 527.411144 283.556497 
L 528.509299 285.054636 
L 528.819551 285.329708 
L 529.051235 285.807823 
L 529.435479 286.325278 
L 529.588519 286.421105 
L 529.969489 287.003398 
L 530.272605 287.326739 
L 530.423614 287.443695 
L 530.649446 287.729817 
L 530.724543 287.777817 
L 530.949295 288.200669 
L 532.354281 290.168331 
L 532.573267 290.504619 
L 533.513448 291.847106 
L 534.651538 293.350369 
L 534.792355 293.44493 
L 534.862645 293.483275 
L 535.143019 293.944399 
L 535.769304 294.854068 
L 536.457905 295.505913 
L 536.663017 295.821875 
L 538.146978 298.050105 
L 538.280155 298.155181 
L 538.941823 299.148099 
L 539.204544 299.604592 
L 540.11548 300.935167 
L 540.308968 301.247143 
L 540.373331 301.261516 
L 540.630124 301.675079 
L 540.758127 301.771835 
L 541.330921 302.708467 
L 541.835708 303.580672 
L 542.023958 303.879668 
L 542.023958 303.879668 
" clip-path="url(#pa3a88161f0)" style="fill: none; stroke: #f8a953; stroke-width: 2; stroke-linecap: square"/>
   </g>
   <g id="line2d_37">
    <path d="M 109.707917 17.327832 
L 153.094233 24.968198 
L 178.473601 26.371945 
L 196.480549 29.372524 
L 210.447823 30.704246 
L 221.859917 33.248895 
L 231.508705 33.605277 
L 239.866865 36.975183 
L 247.239285 39.475803 
L 253.834139 41.314504 
L 259.79991 41.638488 
L 265.246233 41.805196 
L 270.256364 42.520415 
L 274.895021 43.297246 
L 279.213507 44.774391 
L 283.253181 45.17083 
L 287.047871 46.723799 
L 294.009842 47.354651 
L 297.220455 48.822515 
L 300.274388 49.268536 
L 303.186226 50.691055 
L 305.968605 50.825316 
L 308.632549 51.514271 
L 316.004968 52.642707 
L 320.477815 53.534352 
L 322.599823 55.012018 
L 324.652243 55.162817 
L 326.639497 56.29521 
L 330.434187 57.060154 
L 332.248611 57.427388 
L 334.011916 58.530442 
L 335.726907 59.09373 
L 339.022048 59.429114 
L 340.606771 59.742498 
L 343.660704 60.543322 
L 346.572542 61.290894 
L 347.979191 62.274074 
L 349.354921 62.597292 
L 350.701064 62.658236 
L 353.309492 63.42296 
L 354.574045 63.465744 
L 358.221284 64.214805 
L 359.391284 64.683728 
L 361.667652 65.088078 
L 362.775526 65.451271 
L 363.864131 65.659505 
L 364.934127 65.747718 
L 365.986139 65.952928 
L 368.038559 66.608207 
L 370.99627 67.423777 
L 371.95191 67.533654 
L 372.893179 67.900655 
L 376.522788 68.474993 
L 377.398232 69.020868 
L 379.113223 69.358197 
L 380.782474 69.706929 
L 381.600698 69.939055 
L 382.408363 70.344644 
L 384.770652 70.674842 
L 385.538677 70.942701 
L 386.297392 71.044851 
L 387.04702 71.359418 
L 389.958858 72.09604 
L 391.365506 72.420164 
L 392.057151 72.843723 
L 392.741237 72.873322 
L 393.417927 73.212166 
L 395.40518 73.610422 
L 396.695808 74.264097 
L 397.960361 74.542926 
L 403.3545 76.020612 
L 403.926132 76.032322 
L 404.49259 76.190338 
L 405.053968 76.511476 
L 405.610356 76.522126 
L 406.161842 76.766132 
L 407.250447 76.919909 
L 408.848659 77.519933 
L 409.891903 77.64659 
L 412.921199 78.52249 
L 413.412129 78.761386 
L 415.338226 79.136872 
L 415.81063 79.463949 
L 416.279495 79.631458 
L 417.206819 79.785063 
L 423.339729 81.404088 
L 423.755632 81.661665 
L 425.392149 81.977646 
L 426.194637 82.237407 
L 426.986967 82.556854 
L 427.379403 82.569449 
L 427.769393 82.743863 
L 428.542158 82.851983 
L 430.80481 83.689469 
L 431.54121 83.796524 
L 432.269046 84.016239 
L 433.345174 84.358122 
L 437.805756 85.579701 
L 438.136064 85.776856 
L 438.791496 85.896931 
L 439.761953 86.3596 
L 440.400665 86.560011 
L 442.586187 87.042844 
L 442.892267 87.254083 
L 444.101835 87.630742 
L 444.697966 87.833122 
L 447.312448 88.513 
L 447.596318 88.694666 
L 448.440284 88.892986 
L 449.273022 89.121759 
L 449.548158 89.32995 
L 450.094827 89.425357 
L 453.278219 90.42243 
L 454.049398 90.763763 
L 454.558289 90.882311 
L 455.313951 91.071092 
L 456.553461 91.580497 
L 457.042473 91.694154 
L 457.527694 91.961661 
L 458.961189 92.336686 
L 461.279722 92.992099 
L 461.506921 93.278727 
L 462.183611 93.470251 
L 465.674033 94.676811 
L 466.726044 95.002673 
L 467.555106 95.264774 
L 468.778465 95.596787 
L 476.73149 98.399583 
L 477.086127 98.58377 
L 478.484916 98.982715 
L 478.829783 99.121083 
L 480.358595 99.636218 
L 481.026262 99.904277 
L 481.357444 100.004108 
L 482.987568 100.644383 
L 483.945646 100.919523 
L 484.419241 101.222006 
L 484.88928 101.305548 
L 485.20069 101.489399 
L 485.8189 101.695012 
L 486.12573 101.86794 
L 486.583173 102.001973 
L 487.786926 102.462338 
L 497.563325 106.25292 
L 497.944605 106.499212 
L 498.574955 106.677885 
L 498.95014 106.825576 
L 499.446914 107.055029 
L 500.062388 107.309609 
L 507.011464 110.253183 
L 507.774141 110.608217 
L 508.527637 110.928017 
L 509.166349 111.232344 
L 509.798609 111.540363 
L 510.320658 111.761528 
L 510.941422 112.062198 
L 511.454064 112.276511 
L 511.962541 112.553766 
L 512.164781 112.644723 
L 514.832931 113.752825 
L 515.122491 113.930143 
L 515.410719 114.020519 
L 515.697625 114.202186 
L 516.45634 114.566015 
L 517.205968 114.909001 
L 526.293378 119.307302 
L 526.534585 119.453619 
L 526.774867 119.568073 
L 527.411144 119.927918 
L 527.726873 120.045155 
L 528.119308 120.236668 
L 529.128273 120.767801 
L 529.435479 120.917207 
L 530.12123 121.224762 
L 530.498982 121.466076 
L 531.396391 121.969902 
L 532.061104 122.303531 
L 532.573267 122.532955 
L 533.225663 122.917414 
L 533.942661 123.281485 
L 534.227176 123.418283 
L 534.862645 123.804026 
L 535.212916 123.986029 
L 536.252119 124.598197 
L 536.457905 124.715838 
L 539.073321 126.220271 
L 539.59657 126.532793 
L 539.856563 126.688455 
L 540.437628 127.075945 
L 540.694158 127.171615 
L 540.949641 127.308275 
L 542.023958 128.01479 
L 542.023958 128.01479 
" clip-path="url(#pa3a88161f0)" style="fill: none; stroke: #8ca3f1; stroke-width: 2; stroke-linecap: square"/>
   </g>
   <g id="line2d_38">
    <path d="M 109.707917 50.226934 
L 542.023958 136.263068 
L 542.023958 136.263068 
" clip-path="url(#pa3a88161f0)" style="fill: none; stroke-dasharray: 5.55,2.4; stroke-dashoffset: 0; stroke: #888888; stroke-width: 1.5"/>
   </g>
   <g id="line2d_39">
    <path d="M 109.707917 17.327832 
L 542.023958 103.363965 
L 542.023958 103.363965 
" clip-path="url(#pa3a88161f0)" style="fill: none; stroke-dasharray: 5.55,2.4; stroke-dashoffset: 0; stroke: #888888; stroke-width: 1.5"/>
   </g>
   <g id="patch_3">
    <path d="M 88.092115 318.20726 
L 88.092115 3.00024 
" style="fill: none; stroke: #000000; stroke-width: 0.8; stroke-linejoin: miter; stroke-linecap: square"/>
   </g>
   <g id="patch_4">
    <path d="M 88.092115 318.20726 
L 563.63976 318.20726 
" style="fill: none; stroke: #000000; stroke-width: 0.8; stroke-linejoin: miter; stroke-linecap: square"/>
   </g>
  </g>
 </g>
 <defs>
  <clipPath id="pa3a88161f0">
   <rect x="88.092115" y="3.00024" width="475.547645" height="315.20702"/>
  </clipPath>
 </defs>
</svg>
